<svg xmlns="http://www.w3.org/2000/svg" width="51.919" height="51.92" viewBox="0 0 51.919 51.92">
  <g id="Grupo_786" data-name="Grupo 786" transform="translate(-1366.03 -6614.724)">
    <g id="Grupo_787" data-name="Grupo 787" transform="translate(1366.81 6615.504)">
      <g id="Elipse_30" data-name="Elipse 30">
        <circle id="Elipse_30-2" data-name="Elipse 30" cx="25.179" cy="25.179" r="25.179" fill="#fff"/>
      </g>
      <g id="Grupo_786-2" data-name="Grupo 786" transform="translate(13.148 11.298)">
        <g id="Trazado_876" data-name="Trazado 876">
          <path id="Trazado_876-2" data-name="Trazado 876" d="M1396.987,6634.03v21.924a3.353,3.353,0,0,1-.1,1.346,1.107,1.107,0,0,1-.972.676,1.07,1.07,0,0,1-.891-.606,1.616,1.616,0,0,1-.156-.795c0-.211.019-.423.019-.634q-.006-10.128,0-20.256V6634c-.536.479-.866.745-1.165,1.043q-3.744,3.726-7.479,7.459a5.269,5.269,0,0,1-.615.581,1.119,1.119,0,0,1-1.571-.194,1.067,1.067,0,0,1-.066-.095,1.235,1.235,0,0,1,.142-1.248,5.348,5.348,0,0,1,.517-.5q5.007-5.009,10.019-10.014c1.1-1.1,1.433-1.1,2.543.01q5.014,5,10.017,10.019a3.657,3.657,0,0,1,.522.52,1.243,1.243,0,0,1,.208.678,1.031,1.031,0,0,1-.407.877,1.2,1.2,0,0,1-.976.11,2.976,2.976,0,0,1-1.047-.84q-3.831-3.812-7.651-7.638C1397.681,6634.568,1397.448,6634.407,1396.987,6634.03Z" transform="translate(-1383.888 -6630.21)" fill="#f73521"/>
        </g>
      </g>
    </g>
    <path id="Trazado_877" data-name="Trazado 877" d="M1391.989,6666.644a25.96,25.96,0,1,1,25.96-25.96A25.99,25.99,0,0,1,1391.989,6666.644Zm0-50.359a24.4,24.4,0,1,0,24.4,24.4A24.428,24.428,0,0,0,1391.989,6616.284Z" transform="translate(0 0)" fill="#e6e6e6"/>
  </g>
</svg>
