<svg xmlns="http://www.w3.org/2000/svg" width="44.26" height="36.292" viewBox="0 0 44.26 36.292">
  <g id="Grupo_172" data-name="Grupo 172" transform="translate(0)">
    <path id="Trazado_250" data-name="Trazado 250" d="M990.037,5840.78c1.565-1.672,2.9-3.1,4.23-4.521a20.233,20.233,0,0,1,1.824-1.891c.256-.212.787-.09,1.192-.119-.006.408.162.973-.044,1.2q-3.6,3.987-7.307,7.869a1.134,1.134,0,0,1-1.006.262,1.19,1.19,0,0,1-.5-.915c-.049-1.79-.026-3.579-.028-5.369v-1.628c-1.115,0-2.115,0-3.116,0-3.1.014-4.811-1.7-4.81-4.812,0-6.211.074-12.424-.03-18.634a4.569,4.569,0,0,1,4.865-4.9q17.272.151,34.545,0a4.506,4.506,0,0,1,4.849,4.8c-.068,6.316-.013,12.633-.033,18.949a4.235,4.235,0,0,1-4.608,4.58q-9.109.016-18.22.009c-.21,0-.475.067-.62-.034-.311-.215-.766-.514-.776-.792s.412-.644.73-.823a2.077,2.077,0,0,1,.933-.051c5.933,0,11.866,0,17.8-.013,2.239-.005,3.069-.829,3.073-3.031q.016-9.527.005-19.055c0-1.86-.907-2.82-2.756-2.827-6.984-.027-13.969-.022-20.953-.029-4.562,0-9.125.016-13.687-.023-2.537-.021-3.426.815-3.424,3.364q.009,9.211,0,18.423c0,2.336.833,3.186,3.143,3.189,1.124,0,2.248.025,3.371-.005.982-.027,1.4.384,1.37,1.385C990,5837.05,990.037,5838.751,990.037,5840.78Z" transform="translate(-980.444 -5807.329)" fill="#4d4d4d"/>
    <path id="Trazado_251" data-name="Trazado 251" d="M1001.744,5818.195a9.934,9.934,0,0,1-1.581,5.889c-2.055,3.069-5.164,3.149-7.279.143a10.49,10.49,0,0,1-1.525-8.135,3.566,3.566,0,0,1,.415-1.072c1.024-1.88,3.7-2.662,6.681-1.972a4.171,4.171,0,0,1,3.287,4.2C1001.755,5817.564,1001.744,5817.879,1001.744,5818.195Zm-1.824-.624c.153-1.6-.4-2.563-1.729-2.818a9.745,9.745,0,0,0-3.016-.115,2.386,2.386,0,0,0-2.3,2.64,15.522,15.522,0,0,0,.051,2.416,6.81,6.81,0,0,0,1.963,4.313c1.062,1.017,2.2,1.109,3.11-.019a17.362,17.362,0,0,0,1.826-3.355c.4-.812.091-1.27-.743-1.7a2.06,2.06,0,0,0-2.384-.072,4.475,4.475,0,0,1-1.3.4c-.568.158-1.1.113-1.268-.543s.306-.872.848-1.088c.762-.3,1.452-.787,2.216-1.079a1.779,1.779,0,0,1,1.213.037A9.978,9.978,0,0,1,999.92,5817.571Z" transform="translate(-983.16 -5808.719)" fill="#4d4d4d"/>
    <path id="Trazado_252" data-name="Trazado 252" d="M994.991,5835.518c1.011-1.256,1.953-2.375,2.836-3.54a1.35,1.35,0,0,1,1.8-.581,27.384,27.384,0,0,1,3.074,1.314,3.741,3.741,0,0,1,1.864,3.441c0,.5-.055.9-.71.913-.574.012-.883-.1-.942-.785a3.5,3.5,0,0,0-3.378-3.124,1.419,1.419,0,0,0-.909.546c-.933,1.094-1.808,2.236-2.723,3.345-.707.857-1.129.853-1.832-.012-.908-1.115-1.817-2.228-2.69-3.371a1.063,1.063,0,0,0-1.35-.42c-1.639.518-3.008,1.215-3.015,3.257,0,.187-.537.553-.774.515-.3-.048-.748-.407-.773-.665a3.52,3.52,0,0,1,1.738-3.58,17.652,17.652,0,0,1,3.683-1.466c.312-.094.9.292,1.184.615C993.056,5833.043,993.963,5834.236,994.991,5835.518Z" transform="translate(-981.714 -5813.404)" fill="#4d4d4d"/>
    <path id="Trazado_253" data-name="Trazado 253" d="M1021.763,5824.528c-1.823,0-3.645-.007-5.468,0-.551,0-.935-.068-.947-.777-.014-.75.362-.858.977-.855q5.521.017,11.042-.006c.6,0,.99.069.989.837,0,.8-.453.805-1.019.8C1025.479,5824.523,1023.621,5824.528,1021.763,5824.528Z" transform="translate(-989.307 -5811.281)" fill="#f73521"/>
    <path id="Trazado_254" data-name="Trazado 254" d="M1021.763,5829.588c-1.823,0-3.645-.008-5.468,0-.551,0-.935-.068-.947-.777-.014-.75.362-.857.977-.855q5.521.018,11.042-.006c.6,0,.99.069.989.837,0,.8-.453.805-1.019.8C1025.479,5829.582,1023.621,5829.588,1021.763,5829.588Z" transform="translate(-989.307 -5812.565)" fill="#f73521"/>
    <path id="Trazado_255" data-name="Trazado 255" d="M1021.763,5819.47c-1.823,0-3.645-.008-5.468,0-.551,0-.935-.068-.947-.777-.014-.749.362-.857.977-.855q5.521.018,11.042-.006c.6,0,.99.069.989.837,0,.8-.453.805-1.019.8C1025.479,5819.463,1023.621,5819.47,1021.763,5819.47Z" transform="translate(-989.307 -5809.996)" fill="#f73521"/>
    <path id="Trazado_256" data-name="Trazado 256" d="M1018.962,5834.651c-.943,0-1.888-.023-2.831.009-.607.021-.79-.248-.784-.812.006-.531.119-.876.745-.873,1.923.014,3.844.011,5.767,0,.63,0,.728.367.739.888.01.581-.219.818-.805.8-.943-.027-1.888-.007-2.831-.007Z" transform="translate(-989.307 -5813.841)" fill="#f73521"/>
  </g>
</svg>
