<svg xmlns="http://www.w3.org/2000/svg" width="26.685" height="26.684" viewBox="0 0 26.685 26.684">
  <g id="Grupo_115" data-name="Grupo 115" transform="translate(0 0)">
    <g id="Grupo_114" data-name="Grupo 114">
      <path id="Trazado_284" data-name="Trazado 284" d="M-386.576,5591.9a13.343,13.343,0,0,0-13.343-13.343,13.343,13.343,0,0,0-13.342,13.343A13.346,13.346,0,0,0-402,5605.083v-9.323h-3.388V5591.9H-402v-2.939c0-3.344,1.992-5.19,5.04-5.19a20.576,20.576,0,0,1,2.986.26v3.283h-1.682a1.929,1.929,0,0,0-2.175,2.084v2.5h3.7l-.592,3.856h-3.109v9.323A13.346,13.346,0,0,0-386.576,5591.9Z" transform="translate(413.261 -5578.56)"/>
      <path id="Trazado_285" data-name="Trazado 285" d="M-383.346,5603.294l.592-3.856h-3.7v-2.5a1.928,1.928,0,0,1,2.175-2.083h1.682v-3.284a20.5,20.5,0,0,0-2.986-.261c-3.048,0-5.04,1.847-5.04,5.191v2.939h-3.388v3.856h3.388v9.324a13.578,13.578,0,0,0,2.084.161,13.577,13.577,0,0,0,2.085-.161v-9.324Z" transform="translate(401.882 -5586.096)" fill="#fff"/>
    </g>
  </g>
</svg>
