<svg xmlns="http://www.w3.org/2000/svg" width="6.748" height="13.267" viewBox="0 0 6.748 13.267">
  <g id="Grupo_138" data-name="Grupo 138" transform="matrix(1, -0.017, 0.017, 1, 0, 0.114)">
    <path id="Trazado_645" data-name="Trazado 645" d="M6.519,6.614,1.065.294A.644.644,0,0,0,.2.1.739.739,0,0,0,.219,1.115C1.737,2.945,3.3,4.735,4.914,6.609c-.4.466-.8.935-1.2,1.4C2.526,9.4,1.316,10.766.16,12.18a.6.6,0,0,0-.062.734c.567.772,1.416-.53,1.733-.889q.689-.783,1.372-1.57Q4.586,8.862,5.96,7.262C6.008,7.207,6.531,6.629,6.519,6.614Z" transform="translate(0 0)" fill="#4d4d4d"/>
  </g>
</svg>
