<svg xmlns="http://www.w3.org/2000/svg" width="43.725" height="43.721" viewBox="0 0 43.725 43.721">
  <path id="Sustracción_1" data-name="Sustracción 1" d="M12155.108-2719.056a21.226,21.226,0,0,1-15.106-6.256,21.218,21.218,0,0,1-6.257-15.1,21.218,21.218,0,0,1,6.257-15.1,21.226,21.226,0,0,1,15.106-6.256,21.223,21.223,0,0,1,15.1,6.256,21.218,21.218,0,0,1,6.257,15.1,21.218,21.218,0,0,1-6.257,15.1A21.223,21.223,0,0,1,12155.108-2719.056Zm-5-33.914a7.532,7.532,0,0,0-7.523,7.524v10a7.532,7.532,0,0,0,7.523,7.524h10a7.532,7.532,0,0,0,7.523-7.524v-10a7.532,7.532,0,0,0-7.523-7.524Zm10,22.693h-10a5.174,5.174,0,0,1-5.168-5.167v-10a5.172,5.172,0,0,1,5.168-5.164h10a5.172,5.172,0,0,1,5.167,5.164v10A5.173,5.173,0,0,1,12160.108-2730.277Zm-4.9-16.337a6.174,6.174,0,0,0-6.167,6.167,6.176,6.176,0,0,0,6.167,6.17,6.177,6.177,0,0,0,6.17-6.17A6.175,6.175,0,0,0,12155.21-2746.614Zm6.527-1.883a1.469,1.469,0,0,0-1.467,1.467,1.469,1.469,0,0,0,1.467,1.467,1.47,1.47,0,0,0,1.47-1.467A1.47,1.47,0,0,0,12161.737-2748.5Zm-6.527,12a3.956,3.956,0,0,1-3.951-3.951,3.956,3.956,0,0,1,3.951-3.951,3.956,3.956,0,0,1,3.951,3.951A3.956,3.956,0,0,1,12155.21-2736.5Z" transform="translate(-12133.245 2762.277)" stroke="rgba(0,0,0,0)" stroke-miterlimit="10" stroke-width="1"/>
</svg>
