<svg xmlns="http://www.w3.org/2000/svg" width="37.58" height="29.026" viewBox="0 0 37.58 29.026">
  <g id="Grupo_110" data-name="Grupo 110" transform="translate(0)">
    <g id="Grupo_109" data-name="Grupo 109" transform="translate(0 0)">
      <path id="Trazado_280" data-name="Trazado 280" d="M470.207,5931.731q-7.64,0-15.28,0c-2.484,0-3.453-1.006-3.454-3.562q0-10.95,0-21.9c0-2.557.972-3.561,3.454-3.561q15.28,0,30.561,0c2.633,0,3.559.957,3.561,3.678q0,10.89,0,21.783c0,2.563-.967,3.559-3.452,3.562Q477.9,5931.736,470.207,5931.731Zm17.264-2.764v-23.621c-.4.294-.7.488-.974.712-5.013,4.1-10.042,8.188-15.018,12.339a1.543,1.543,0,0,1-2.36-.021c-4.926-4.034-9.893-8.013-14.849-12.008-.357-.289-.729-.556-1.2-.912v23.471c.382-.445.625-.715.852-1q3.258-4.068,6.512-8.142c.163-.2.3-.492.507-.583.294-.127.824-.257.935-.113a1.484,1.484,0,0,1,.192,1.079c-.059.3-.371.546-.58.808q-3.251,4.078-6.5,8.15c-.2.246-.361.52-.616.892h31.8c-.3-.428-.5-.729-.722-1.007q-3.319-4.166-6.645-8.322c-.379-.479-.848-1.014-.247-1.57.646-.6,1.044.063,1.41.519q2.913,3.628,5.811,7.267C486.281,5927.531,486.8,5928.148,487.471,5928.967Zm-17.155-11.691,15.662-12.848H454.4Z" transform="translate(-451.471 -5902.706)" fill="#4d4d4d"/>
    </g>
  </g>
</svg>
