<svg xmlns="http://www.w3.org/2000/svg" width="74.375" height="58.385" viewBox="0 0 74.375 58.385">
  <g id="Grupo_46" data-name="Grupo 46" transform="translate(0 0)">
    <path id="Trazado_149" data-name="Trazado 149" d="M924.525,5397.924q-4.5,2.65-9,5.3c-2.723,1.608-5.452,3.209-8.15,4.859a1.867,1.867,0,0,1-2.34-.1q-11.127-7.888-22.293-15.719c-1.06-.747-.951-1.746.207-2.367s2.284-1.285,3.518-1.984c-1.3-.915-2.515-1.776-3.732-2.639-1.17-.829-1.112-1.772.144-2.475,1.073-.6,2.139-1.213,3.34-1.9-1.144-.808-2.2-1.563-3.266-2.31-1.359-.955-1.315-1.831.145-2.632q8.524-4.683,17.049-9.368a6.6,6.6,0,0,0,.76-.562c.353-.007.772-.141,1.043,0a21.062,21.062,0,0,1,1.923,1.287L885.539,5377.4c.133.106.232.194.339.271q9.961,7.018,19.915,14.05a.762.762,0,0,0,.99.008c2.018-1.22,4.055-2.409,6.079-3.617q5.936-3.542,11.865-7.093c1.259.342,1.15,1.317,1.061,2.285-.3.165-.616.322-.914.5-5.83,3.46-11.669,6.907-17.478,10.4a1.955,1.955,0,0,1-2.469-.114c-5.3-3.786-10.641-7.525-15.979-11.265a1.018,1.018,0,0,0-.823-.176c-.909.446-1.777.976-2.713,1.5.278.207.489.372.707.526q9.669,6.812,19.329,13.633a1.178,1.178,0,0,0,1.538.028q9.383-5.612,18.8-11.168l0,2.864c-.213.109-.431.21-.636.333q-8.993,5.331-17.975,10.682a1.728,1.728,0,0,1-2.2-.1c-1.264-.951-2.577-1.836-3.872-2.747l-12.44-8.759-3.14,1.8,20.75,14.607c.89-.525,1.723-1.011,2.552-1.5q8.474-5.023,16.949-10.048a8.722,8.722,0,0,0,.036,1.026A2.064,2.064,0,0,1,924.525,5397.924Z" transform="translate(-881.892 -5350.063)" fill="#e6e6e6"/>
    <path id="Trazado_150" data-name="Trazado 150" d="M922.932,5398.576a2.064,2.064,0,0,0,1.294-2.58,8.72,8.72,0,0,1-.036-1.027q0-2.137.008-4.273,0-1.433,0-2.865,0-1.935,0-3.87c.088-.968.2-1.944-1.061-2.285-.235-.174-.462-.358-.705-.519q-6-3.948-12.014-7.887-4.062-2.659-8.139-5.294a20.663,20.663,0,0,0-1.923-1.288c-.271-.145-.69-.011-1.043,0-.009-.348-.008-.7-.029-1.045a1.433,1.433,0,0,1,.791-1.455c3.069-1.705,6.141-3.4,9.2-5.13a1.628,1.628,0,0,1,1.859.2q9.417,5.947,18.852,11.867c1.791,1.126,3.595,2.232,5.393,3.349a2.057,2.057,0,0,1,1.1,2.123q0,1.964-.008,3.929,0,1.4,0,2.8,0,2.161-.005,4.321,0,1.4,0,2.809c-.017.615-.058,1.229-.044,1.845a1.659,1.659,0,0,1-.882,1.582q-4.616,2.832-9.2,5.708a1.615,1.615,0,0,1-2-.067C923.875,5399.187,923.4,5398.889,922.932,5398.576Zm-20.043-33.169c.324.218.522.351.723.481q11.028,7.244,22.065,14.473a1.944,1.944,0,0,1,.984,1.85c-.034,4.481-.015,8.964-.015,13.448v.8c.352-.19.584-.3.8-.437,1.984-1.229,3.954-2.48,5.953-3.682a1.1,1.1,0,0,0,.586-1.1c-.011-4.266-.065-8.537.051-12.8a2.921,2.921,0,0,0-1.632-2.965c-7.328-4.518-14.588-9.142-21.882-13.712a1.029,1.029,0,0,0-.853-.111C907.436,5362.857,905.223,5364.105,902.889,5365.407Z" transform="translate(-880.299 -5350.716)" fill="#f73521"/>
    <path id="Trazado_151" data-name="Trazado 151" d="M935.06,5377.27a2.057,2.057,0,0,0-1.1-2.123c5.16-3.072,10.32-6.143,15.583-9.271-1.353-.746-2.621-1.45-3.9-2.146q-8.61-4.7-17.216-9.41a1.311,1.311,0,0,0-1.463.011q-5.056,2.82-10.151,5.572a1.667,1.667,0,0,1-1.111.3,1.8,1.8,0,0,1-.962-.915c-.242-.6.121-1.074.675-1.378l5-2.75c2.115-1.16,4.242-2.3,6.339-3.491a1.765,1.765,0,0,1,1.88.011q11.817,6.46,23.639,12.915c1.19.649,1.3,1.7.216,2.352Q943.791,5372.127,935.06,5377.27Z" transform="translate(-878.888 -5351.398)" fill="#e6e6e6"/>
    <path id="Trazado_152" data-name="Trazado 152" d="M933.338,5388.861q0-1.4,0-2.81,7.945-4.709,15.893-9.42a3.067,3.067,0,0,1,.862-.4,1.111,1.111,0,0,1,1.324.659,1.131,1.131,0,0,1-.325,1.443,2.39,2.39,0,0,1-.4.269q-8.566,5.086-17.133,10.165A2.167,2.167,0,0,1,933.338,5388.861Z" transform="translate(-877.178 -5349.125)" fill="#e6e6e6"/>
    <path id="Trazado_153" data-name="Trazado 153" d="M933.342,5382.324q0-1.4,0-2.8,7.783-4.616,15.563-9.233a5.649,5.649,0,0,1,.842-.47,1.121,1.121,0,0,1,1.514.521,1.142,1.142,0,0,1-.287,1.519,1.623,1.623,0,0,1-.266.178Q942.025,5377.181,933.342,5382.324Z" transform="translate(-877.177 -5349.719)" fill="#e6e6e6"/>
  </g>
</svg>
