<svg xmlns="http://www.w3.org/2000/svg" width="51.374" height="59.495" viewBox="0 0 51.374 59.495">
  <g id="Grupo_86" data-name="Grupo 86" transform="translate(0 0)">
    <path id="Trazado_266" data-name="Trazado 266" d="M426.737,5899.957c-2.105.485-2.215.406-2.248-1.594-.031-1.865-.359-2.216-2.233-2.219q-12.311-.013-24.621,0c-1.809,0-2.246.434-2.247,2.238q-.008,25,0,50c0,1.957.442,2.373,2.441,2.374q12.083.006,24.165,0c2.143,0,2.487-.339,2.491-2.451q.014-7.22,0-14.437c0-.909.057-1.559,1.258-1.555,1.237,0,1.219.729,1.217,1.6-.013,4.915.008,9.829-.016,14.743-.015,2.966-1.514,4.508-4.5,4.521q-12.462.055-24.925,0c-3.158-.012-4.537-1.54-4.541-4.951q-.023-20.593-.011-41.186c0-2.838-.017-5.675.011-8.512.035-3.452,1.368-4.8,4.81-4.807q12.083-.031,24.165,0C425.954,5893.719,427.644,5895.94,426.737,5899.957Z" transform="translate(-392.955 -5893.703)" fill="#e6e6e6"/>
    <path id="Trazado_267" data-name="Trazado 267" d="M429.867,5908.231c4.76,0,9.518-.006,14.278,0,3.724.006,5.7,1.973,5.724,5.721q.038,7.14.007,14.28c-.017,3.77-2.061,5.794-5.858,5.8q-14.278.016-28.557-.008c-3.777,0-5.783-2.024-5.8-5.838q-.033-7.14-.009-14.278c.014-3.693,2.045-5.674,5.784-5.679Q422.652,5908.218,429.867,5908.231Zm-.143,23.5v.006c4.865,0,9.729.019,14.594-.008,2.271-.014,3.369-1.1,3.382-3.369q.044-7.221,0-14.441c-.011-2.334-1.121-3.487-3.454-3.5q-14.442-.044-28.884-.006c-2.429.006-3.531,1.154-3.541,3.57q-.03,7.068,0,14.138c.013,2.568,1.062,3.6,3.609,3.6C420.2,5931.743,424.961,5931.735,429.724,5931.735Z" transform="translate(-398.517 -5898.543)" fill="#f73521"/>
    <path id="Trazado_268" data-name="Trazado 268" d="M456.253,5920.52a4.963,4.963,0,1,1-4.9-4.964A5.026,5.026,0,0,1,456.253,5920.52Zm-5.012,2.666a2.674,2.674,0,0,0,2.782-2.614,2.743,2.743,0,0,0-2.654-2.768,2.671,2.671,0,0,0-2.744,2.65A2.568,2.568,0,0,0,451.242,5923.185Z" transform="translate(-410.743 -5900.986)" fill="#f73521"/>
    <path id="Trazado_269" data-name="Trazado 269" d="M428.021,5936.841c-2.627,0-5.256,0-7.883,0-.749,0-1.565.136-1.6-1.049s.721-1.115,1.511-1.115q8.034.009,16.068,0c.777,0,1.567-.071,1.542,1.1s-.853,1.061-1.6,1.063C433.377,5936.849,430.7,5936.842,428.021,5936.841Z" transform="translate(-401.481 -5907.357)" fill="#f73521"/>
    <rect id="Rectángulo_29" data-name="Rectángulo 29" width="23.065" height="2.093" rx="1.046" transform="translate(5.622 45.931)" fill="#e6e6e6"/>
    <rect id="Rectángulo_30" data-name="Rectángulo 30" width="5.334" height="2.424" rx="1.212" transform="translate(14.44 51.246)" fill="#e6e6e6"/>
    <rect id="Rectángulo_31" data-name="Rectángulo 31" width="12.562" height="2.143" rx="1.072" transform="translate(17.062 22.199)" fill="#f73521"/>
  </g>
</svg>
