<svg xmlns="http://www.w3.org/2000/svg" width="56.049" height="56.188" viewBox="0 0 56.049 56.188">
  <g id="Grupo_85" data-name="Grupo 85" transform="translate(0 0)">
    <g id="Grupo_65" data-name="Grupo 65" transform="translate(0 0)">
      <path id="Trazado_220" data-name="Trazado 220" d="M713.564,5774.241a25.456,25.456,0,0,0,25.132-29.5c-.04-.266-.166-.59-.065-.79a17.772,17.772,0,0,1,1.009-1.589c.481.4,1.334.764,1.381,1.21a38.236,38.236,0,0,1,.42,7.511,28,28,0,0,1-30.262,25.641c-13.624-.917-25.1-12.637-25.686-26.236-.663-15.353,9.643-27.739,24.9-29.666a26.957,26.957,0,0,1,17.034,3.522c.811.463,1.731,1.012,1.092,2.112s-1.559.541-2.372.084a25.53,25.53,0,1,0-12.584,47.7Z" transform="translate(-685.464 -5720.604)" fill="#e6e6e6"/>
    </g>
    <path id="Trazado_221" data-name="Trazado 221" d="M710.784,5754.4c3.768-4.841,7.39-9.509,11.028-14.166,2.937-3.763,5.818-7.572,8.9-11.218.61-.723,2.335-1.389,2.963-1.037,1.579.883.689,2.23-.157,3.318q-10.311,13.25-20.637,26.489c-1.786,2.28-2.814,2.219-4.561-.173q-4.875-6.678-9.708-13.392c-.755-1.044-1.525-2.237-.157-3.228,1.418-1.025,2.414-.036,3.253,1.129q3.821,5.31,7.682,10.592C709.757,5753.222,710.193,5753.688,710.784,5754.4Z" transform="translate(-681.92 -5718.495)" fill="#f73521"/>
  </g>
</svg>
