<svg xmlns="http://www.w3.org/2000/svg" width="40.444" height="39.291" viewBox="0 0 40.444 39.291">
  <g id="Grupo_111" data-name="Grupo 111" transform="translate(0)">
    <path id="Trazado_277" data-name="Trazado 277" d="M588.328,5939.486a21.937,21.937,0,0,1-9.056-2.989c-9.453-5.729-17.241-13.048-22.351-22.779a31.406,31.406,0,0,1-1.749-5.125,3.518,3.518,0,0,1,.972-3.815,44.116,44.116,0,0,1,5.054-4.032,2.552,2.552,0,0,1,3.809.763q2.543,3.53,4.932,7.162a3.174,3.174,0,0,1,.016,3.379q-.745,1.419-1.595,2.784a1.06,1.06,0,0,0,.115,1.552q5.134,4.937,10.222,9.921a1.207,1.207,0,0,0,1.7.135c.9-.537,1.827-1.019,2.762-1.49a3.674,3.674,0,0,1,3.907.18c2.219,1.45,4.462,2.867,6.671,4.332,1.84,1.218,2.2,2.553.931,4.3a31.4,31.4,0,0,1-3.82,4.412A8.869,8.869,0,0,1,588.328,5939.486Zm-.647-1.443a8.123,8.123,0,0,0,1.956-1.021,51.207,51.207,0,0,0,3.53-4.042c.819-1.052.685-1.436-.474-2.2-2.148-1.409-4.327-2.777-6.467-4.2a2.125,2.125,0,0,0-2.385-.107c-1.2.653-2.423,1.273-3.609,1.953a1.375,1.375,0,0,1-1.752-.132,81.486,81.486,0,0,1-12.022-11.664,1.266,1.266,0,0,1-.114-1.7,27.266,27.266,0,0,0,1.966-3.521,2.576,2.576,0,0,0,0-2.067c-1.422-2.288-3.018-4.473-4.544-6.7a1.2,1.2,0,0,0-1.934-.375c-1.45,1.131-2.914,2.251-4.291,3.464a2.2,2.2,0,0,0-.7,2.473,49.914,49.914,0,0,0,1.614,4.8,38.451,38.451,0,0,0,7.776,10.771c4.307,4.405,8.728,8.714,14.384,11.5C582.9,5936.41,585.383,5937.158,587.681,5938.043Z" transform="translate(-554.974 -5900.196)" fill="#4d4d4d"/>
    <path id="Trazado_278" data-name="Trazado 278" d="M588.131,5903.285a19.135,19.135,0,0,1,16.348,10.144,16.328,16.328,0,0,1,2.109,8.188h-1.8c-.239-1.168-.425-2.395-.744-3.585a17.063,17.063,0,0,0-14.665-12.566C587.8,5905.3,587.687,5904.6,588.131,5903.285Z" transform="translate(-569.586 -5900.677)" fill="#4d4d4d"/>
    <path id="Trazado_279" data-name="Trazado 279" d="M587.857,5911.138c5.884-.655,12.376,5.715,12.178,12.073l-1.842.106c-.885-6.053-4.3-9.466-10.336-10.34Z" transform="translate(-567.915 -5903.653)" fill="#4d4d4d"/>
  </g>
</svg>
