<svg xmlns="http://www.w3.org/2000/svg" width="155.811" height="102.877" viewBox="0 0 155.811 102.877">
  <g id="Grupo_869" data-name="Grupo 869" transform="translate(0 0)">
    <g id="Grupo_788" data-name="Grupo 788" transform="translate(0 0)">
      <g id="Grupo_791" data-name="Grupo 791">
        <g id="Grupo_787" data-name="Grupo 787" transform="translate(82.498)">
          <path id="Trazado_878" data-name="Trazado 878" d="M1795.743,7326.456q-8.03,0-16.062,0c-2.539,0-2.961-.729-1.709-2.893q8.169-14.123,16.345-28.241c1.235-2.132,2.067-2.152,3.272-.071q8.176,14.118,16.334,28.246c1.323,2.292.927,2.948-1.77,2.952q-8.205.015-16.411,0Zm-15.217-2.585h30.888l-15.441-26.681Z" transform="translate(-1741.344 -7269.96)" fill="#f73521"/>
          <path id="Trazado_879" data-name="Trazado 879" d="M1828.834,7326.161a1.048,1.048,0,0,0-1.048,1.048v9.171a1.048,1.048,0,1,0,2.1,0v-9.171A1.047,1.047,0,0,0,1828.834,7326.161Z" transform="translate(-1774.203 -7291.081)" fill="#f73521"/>
          <circle id="Elipse_31" data-name="Elipse 31" cx="1.397" cy="1.397" r="1.397" transform="translate(53.234 47.754)" fill="#f73521"/>
          <path id="Trazado_880" data-name="Trazado 880" d="M1738.4,7253.044c0-.006,0-.013,0-.02,0-3.9-.048-7.8.024-11.7.031-1.667-.643-2.278-2.273-2.275q-26.636.04-53.271,0c-1.661,0-2.254.663-2.238,2.3.057,5.878.021,11.757.02,17.636q0,5.762,0,11.524c0,1.332-.3,2.634-1.878,2.619-1.6-.015-1.806-1.37-1.815-2.673-.006-.931,0-1.862,0-2.794q0-18.16,0-36.319a3.508,3.508,0,0,1,.473-2.235c.591-.7,1.614-.619,2.433-.6,1.76.034,3.527,0,5.285-.066,1.293-.051,2.592-.012,3.879-.1q.968-.068,1.939-.066a9.69,9.69,0,0,1,1.992.08,4.427,4.427,0,0,1,2.335,1.834,18.885,18.885,0,0,1,1.948,3.364c.635,1.349,1.742,1.769,3.272,1.758,9.728-.065,19.457-.034,29.183-.042.026,0,.049.008.075.008a1.3,1.3,0,0,0,.11-2.6c0-.007.007-.015.012-.021-.148.012-.3.022-.437.022-9.315,0-18.63-.021-27.946.025a2.9,2.9,0,0,1-2.1-.726,7.044,7.044,0,0,1-.9-1.1c-.919-1.3-1.824-2.61-2.757-3.9a3.462,3.462,0,0,0-3.019-1.257c-4.306.105-8.616.031-12.924.041-3.79.009-5.459,1.649-5.461,5.4q-.013,19.644,0,39.288c0,3.725,1.736,5.463,5.447,5.465q13.346.006,26.691-.017a1.493,1.493,0,0,0,.176.018,1.341,1.341,0,1,0,0-2.683.027.027,0,0,1-.016,0c-.043,0-.087.007-.129.007h-23.227v-31.292c.636-.062,1.085-.146,1.534-.146q24.627-.01,49.254-.032c1.359,0,1.679.5,1.656,1.738-.06,3.2-.086,6.405.048,9.6a1.134,1.134,0,0,0,.018.135c0,.023-.007.044-.007.068a1.307,1.307,0,1,0,2.615,0A1.328,1.328,0,0,0,1738.4,7253.044Z" transform="translate(-1674.362 -7225.715)" fill="#4d4d4d"/>
        </g>
        <text id="Ups_" data-name="Ups!" transform="translate(0 41.459)" fill="#4d4d4d" font-size="35" font-family="OpenSans-Regular, Open Sans"><tspan x="0" y="0">Ups!</tspan></text>
      </g>
    </g>
    <text id="_404_error" data-name="404 error" transform="translate(9.244 93.877)" fill="#4d4d4d" font-size="31" font-family="OpenSans-Regular, Open Sans"><tspan x="0" y="0">404 error</tspan></text>
  </g>
</svg>
