<svg id="Grupo_3" data-name="Grupo 3" xmlns="http://www.w3.org/2000/svg" xmlns:xlink="http://www.w3.org/1999/xlink" width="44.258" height="44.258" viewBox="0 0 44.258 44.258">
  <defs>
    <linearGradient id="linear-gradient" x1="0.698" y1="0.02" x2="0.387" y2="0.773" gradientUnits="objectBoundingBox">
      <stop offset="0" stop-color="#b3b3b3"/>
      <stop offset="1"/>
    </linearGradient>
    <linearGradient id="linear-gradient-2" x1="0" y1="0.5" x2="1" y2="0.5" xlink:href="#linear-gradient"/>
    <linearGradient id="linear-gradient-3" y1="0.5" x2="1" y2="0.5" gradientUnits="objectBoundingBox">
      <stop offset="0"/>
      <stop offset="1" stop-color="#b3b3b3"/>
    </linearGradient>
    <linearGradient id="linear-gradient-4" x1="0.241" y1="0.677" x2="0.868" y2="0.01" gradientUnits="objectBoundingBox">
      <stop offset="0" stop-color="#1f1f1f"/>
      <stop offset="1" stop-color="#b3b3b3"/>
    </linearGradient>
    <linearGradient id="linear-gradient-7" y1="0.5" x2="1" y2="0.5" gradientUnits="objectBoundingBox">
      <stop offset="0" stop-color="#b3b3b3"/>
      <stop offset="0.642"/>
    </linearGradient>
    <linearGradient id="linear-gradient-8" y1="0.5" x2="1" y2="0.5" gradientUnits="objectBoundingBox">
      <stop offset="0" stop-color="#fff"/>
      <stop offset="1" stop-color="#b3b3b3"/>
    </linearGradient>
  </defs>
  <g id="Grupo_2" data-name="Grupo 2">
    <path id="Trazado_1" data-name="Trazado 1" d="M350.851,7471.092a22.129,22.129,0,1,0,22.129,22.129A22.129,22.129,0,0,0,350.851,7471.092Zm0,42.516a20.217,20.217,0,1,1,20.216-20.216A20.217,20.217,0,0,1,350.851,7513.607Z" transform="translate(-328.722 -7471.092)" fill="url(#linear-gradient)"/>
    <path id="Trazado_2" data-name="Trazado 2" d="M354.144,7476.762a20.216,20.216,0,1,0,20.216,20.217A20.216,20.216,0,0,0,354.144,7476.762Zm0,38.842a18.47,18.47,0,1,1,18.47-18.47A18.47,18.47,0,0,1,354.144,7515.6Z" transform="translate(-332.015 -7474.679)" fill="url(#linear-gradient-2)"/>
    <path id="Trazado_3" data-name="Trazado 3" d="M358.362,7514.631c-.824-2.426-1.753-4.817-2.589-7.239a6.527,6.527,0,0,1-.247-.912,4.555,4.555,0,0,1-.085-.918,3.672,3.672,0,0,1,.127-.911,7.288,7.288,0,0,1,.31-.841,1.773,1.773,0,0,0,.081-.224.678.678,0,0,0,.021-.115c0-.02.013-.1-.01-.1,0,0,0,0,0,0a.849.849,0,0,0-.423.23c-.144.11-.282.227-.416.348a9.116,9.116,0,0,0-.881.89c-.242.289-.49.571-.735.856-.424.494-.844.991-1.247,1.5a22.446,22.446,0,0,0-3.627,5.889,2.659,2.659,0,0,0,.375,2.862,10.841,10.841,0,0,0,1.676,1.544c1.577,1.175,3.373,2.046,4.774,3.473a1.019,1.019,0,0,0,1.254.216,3.229,3.229,0,0,0,1.522-1.577A6.347,6.347,0,0,0,358.362,7514.631Zm-1.575,3.489c-.248.877-.612,1.1-1.391.662a14.437,14.437,0,0,1-3.885-3.367,3.343,3.343,0,0,1-.817-3.638c.318-.793.683-1.566,1.027-2.349l.15.072.132,1.75.154-.014a31.263,31.263,0,0,1,.932-3.492,22.8,22.8,0,0,1,1.828-3.067,7.069,7.069,0,0,0,.24,4.232c.5,1.766,1.1,3.507,1.527,5.29A7.652,7.652,0,0,1,356.788,7518.121Z" transform="translate(-341.169 -7491.509)" fill="url(#linear-gradient-3)"/>
    <g id="Grupo_1" data-name="Grupo 1" transform="translate(6.264 8.042)">
      <path id="Trazado_4" data-name="Trazado 4" d="M370.309,7493.053s-.045-.213-1.133.1l-5.583,1.687s-.619.289-2.008-.371a4.657,4.657,0,0,0-2.436.169,10.2,10.2,0,0,0-4.843,2.162h0c.023.008.012.084.01.1a.667.667,0,0,1-.021.116,1.792,1.792,0,0,1-.081.224,7.278,7.278,0,0,0-.31.841,3.666,3.666,0,0,0-.127.911,4.552,4.552,0,0,0,.085.918,6.494,6.494,0,0,0,.247.912c.836,2.423,1.765,4.813,2.589,7.24a6.345,6.345,0,0,1-.117,4.968,3.233,3.233,0,0,1-1.522,1.577,1.019,1.019,0,0,1-1.254-.217,23.872,23.872,0,0,0-3.953-2.9c-.263.733-.539,1.417-.825,2.022a10.457,10.457,0,0,1-3.259,3.391,18.611,18.611,0,0,0,9.248,7.741,11.2,11.2,0,0,0,2.13-3.9,23.892,23.892,0,0,0,1.064-6.786c.025-.985.014-2.025-.037-3.373-.008-.215-.02-.429-.032-.642a10.285,10.285,0,0,1,.046-2.291,10.008,10.008,0,0,1,2.637-5.014,15.352,15.352,0,0,1,4.615-3.414,18.306,18.306,0,0,1,2.283-.854,13.46,13.46,0,0,0,3-1.254l.053-.012c.111-.031.223-.068.335-.107C371.134,7496.68,371.314,7493.29,370.309,7493.053Z" transform="translate(-345.773 -7492.982)" fill="url(#linear-gradient-4)"/>
    </g>
    <path id="Trazado_5" data-name="Trazado 5" d="M358.362,7514.631c-.824-2.426-1.753-4.817-2.589-7.239a6.527,6.527,0,0,1-.247-.912,4.555,4.555,0,0,1-.085-.918,3.672,3.672,0,0,1,.127-.911,7.288,7.288,0,0,1,.31-.841,1.773,1.773,0,0,0,.081-.224.678.678,0,0,0,.021-.115c0-.02.013-.1-.01-.1,0,0,0,0,0,0a.849.849,0,0,0-.423.23c-.144.11-.282.227-.416.348a9.116,9.116,0,0,0-.881.89c-.242.289-.49.571-.735.856-.424.494-.844.991-1.247,1.5a22.446,22.446,0,0,0-3.627,5.889,2.659,2.659,0,0,0,.375,2.862,10.841,10.841,0,0,0,1.676,1.544c1.577,1.175,3.373,2.046,4.774,3.473a1.019,1.019,0,0,0,1.254.216,3.229,3.229,0,0,0,1.522-1.577A6.347,6.347,0,0,0,358.362,7514.631Zm-1.575,3.489c-.248.877-.612,1.1-1.391.662a14.437,14.437,0,0,1-3.885-3.367,3.343,3.343,0,0,1-.817-3.638c.318-.793.683-1.566,1.027-2.349l.15.072.132,1.75.154-.014a31.263,31.263,0,0,1,.932-3.492,22.8,22.8,0,0,1,1.828-3.067,7.069,7.069,0,0,0,.24,4.232c.5,1.766,1.1,3.507,1.527,5.29A7.652,7.652,0,0,1,356.788,7518.121Z" transform="translate(-341.169 -7491.509)" fill="url(#linear-gradient-3)"/>
    <path id="Trazado_6" data-name="Trazado 6" d="M358.362,7514.631c-.824-2.426-1.753-4.817-2.589-7.239a6.527,6.527,0,0,1-.247-.912,4.555,4.555,0,0,1-.085-.918,3.672,3.672,0,0,1,.127-.911,7.288,7.288,0,0,1,.31-.841,1.773,1.773,0,0,0,.081-.224.678.678,0,0,0,.021-.115c0-.02.013-.1-.01-.1,0,0,0,0,0,0a.849.849,0,0,0-.423.23c-.144.11-.282.227-.416.348a9.116,9.116,0,0,0-.881.89c-.242.289-.49.571-.735.856-.424.494-.844.991-1.247,1.5a22.446,22.446,0,0,0-3.627,5.889,2.659,2.659,0,0,0,.375,2.862,10.841,10.841,0,0,0,1.676,1.544c1.577,1.175,3.373,2.046,4.774,3.473a1.019,1.019,0,0,0,1.254.216,3.229,3.229,0,0,0,1.522-1.577A6.347,6.347,0,0,0,358.362,7514.631Zm-1.575,3.489c-.248.877-.612,1.1-1.391.662a14.437,14.437,0,0,1-3.885-3.367,3.343,3.343,0,0,1-.817-3.638c.318-.793.683-1.566,1.027-2.349h0a1.081,1.081,0,0,1,.039.246q.022.138.045.274c.031.187.063.374.092.562.035.222.063.443.084.667a4.758,4.758,0,0,1,.036.646c.195-.734.345-1.48.525-2.219a15.053,15.053,0,0,1,.545-1.859,22.8,22.8,0,0,1,1.828-3.067,7.069,7.069,0,0,0,.24,4.232c.5,1.766,1.1,3.507,1.527,5.29A7.652,7.652,0,0,1,356.788,7518.121Z" transform="translate(-341.169 -7491.509)" fill="url(#linear-gradient-3)"/>
    <path id="Trazado_7" data-name="Trazado 7" d="M373.076,7527.684a11.2,11.2,0,0,1-2.131,3.9,18.6,18.6,0,0,0,12.953.113c-.13-.9-.336-1.79-.529-2.622l-.006-.024c-.333-1.437-.77-2.956-1.318-4.6l-.013-.04c-.23-.687-.478-1.391-.749-2.123-.211-.568-.442-1.143-.666-1.7a19.913,19.913,0,0,1-1.64-5.6,5.2,5.2,0,0,1,.623-3.4,7.433,7.433,0,0,1,.466-.6c.131-.158.264-.32.384-.479h0a6.1,6.1,0,0,1,2.379-1.946,5.035,5.035,0,0,0,1.31-.96,7.068,7.068,0,0,0,.6-.687,4.018,4.018,0,0,1,.95-.957,2.841,2.841,0,0,0,1.354-2.035c-.113.04-.227.078-.339.108l-.053.013a13.438,13.438,0,0,1-3,1.254,18.465,18.465,0,0,0-2.283.854,15.358,15.358,0,0,0-4.615,3.413,10.009,10.009,0,0,0-2.637,5.015,10.285,10.285,0,0,0-.046,2.29c.012.213.023.427.032.642.051,1.348.062,2.387.037,3.373A23.891,23.891,0,0,1,373.076,7527.684Z" transform="translate(-355.434 -7491.87)" fill="url(#linear-gradient-7)"/>
    <path id="Trazado_8" data-name="Trazado 8" d="M360.322,7520.379c-.248.877-.612,1.1-1.391.661a14.425,14.425,0,0,1-3.885-3.366,3.343,3.343,0,0,1-.817-3.638c.318-.793.683-1.566,1.027-2.349h0a1.081,1.081,0,0,1,.039.246c.015.091.03.183.045.274.031.187.063.374.092.562.035.222.063.443.084.667a4.754,4.754,0,0,1,.036.646c.195-.734.345-1.48.525-2.219a15.023,15.023,0,0,1,.545-1.859,22.8,22.8,0,0,1,1.828-3.067,7.07,7.07,0,0,0,.24,4.232c.5,1.766,1.1,3.506,1.527,5.29A7.653,7.653,0,0,1,360.322,7520.379Z" transform="translate(-344.704 -7493.768)" fill="url(#linear-gradient-8)"/>
  </g>
</svg>
