<svg id="Grupo_126" data-name="Grupo 126" xmlns="http://www.w3.org/2000/svg" xmlns:xlink="http://www.w3.org/1999/xlink" width="31.273" height="31.272" viewBox="0 0 31.273 31.272">
  <defs>
    <linearGradient id="linear-gradient" x1="0.698" y1="0.02" x2="0.387" y2="0.773" gradientUnits="objectBoundingBox">
      <stop offset="0" stop-color="#fff"/>
      <stop offset="1" stop-color="#4d4d4d"/>
    </linearGradient>
    <linearGradient id="linear-gradient-2" x1="0" y1="0.5" x2="1" y2="0.5" xlink:href="#linear-gradient"/>
    <linearGradient id="linear-gradient-3" y1="0.5" x2="1" y2="0.5" gradientUnits="objectBoundingBox">
      <stop offset="0"/>
      <stop offset="1" stop-color="#b3b3b3"/>
    </linearGradient>
    <linearGradient id="linear-gradient-4" x1="0.241" y1="0.677" x2="0.868" y2="0.01" gradientUnits="objectBoundingBox">
      <stop offset="0" stop-color="#4d4d4d"/>
      <stop offset="1" stop-color="#e6e6e6"/>
    </linearGradient>
    <linearGradient id="linear-gradient-6" y1="0.5" x2="1" y2="0.5" gradientUnits="objectBoundingBox">
      <stop offset="0" stop-color="#ccc"/>
      <stop offset="0.642" stop-color="#4d4d4d"/>
    </linearGradient>
    <linearGradient id="linear-gradient-7" y1="0.5" x2="1" y2="0.5" gradientUnits="objectBoundingBox">
      <stop offset="0" stop-color="#ccc"/>
      <stop offset="1" stop-color="#4d4d4d"/>
    </linearGradient>
    <linearGradient id="linear-gradient-8" y1="0.5" x2="1" y2="0.5" gradientUnits="objectBoundingBox">
      <stop offset="0" stop-color="#fff"/>
      <stop offset="1" stop-color="#b3b3b3"/>
    </linearGradient>
  </defs>
  <path id="Trazado_296" data-name="Trazado 296" d="M341.654,7749.22a15.636,15.636,0,1,0,15.637,15.636A15.636,15.636,0,0,0,341.654,7749.22Zm0,30.042a14.285,14.285,0,1,1,14.285-14.285A14.285,14.285,0,0,1,341.654,7779.262Z" transform="translate(-326.017 -7749.22)" fill="url(#linear-gradient)"/>
  <path id="Trazado_297" data-name="Trazado 297" d="M345.511,7754.894a14.285,14.285,0,1,0,14.285,14.285A14.285,14.285,0,0,0,345.511,7754.894Zm0,27.445a13.05,13.05,0,1,1,13.051-13.05A13.05,13.05,0,0,1,345.511,7782.339Z" transform="translate(-329.875 -7753.422)" fill="url(#linear-gradient-2)"/>
  <path id="Trazado_298" data-name="Trazado 298" d="M352.748,7789.477c-.583-1.715-1.238-3.4-1.829-5.116a4.586,4.586,0,0,1-.175-.644,3.236,3.236,0,0,1-.06-.648,2.583,2.583,0,0,1,.089-.644,5.091,5.091,0,0,1,.219-.594,1.261,1.261,0,0,0,.057-.159.478.478,0,0,0,.015-.081c0-.014.009-.068-.007-.073s0,0,0,0a.6.6,0,0,0-.3.162q-.152.117-.294.246a6.585,6.585,0,0,0-.622.629c-.171.2-.346.4-.519.605-.3.349-.6.7-.881,1.061a15.849,15.849,0,0,0-2.563,4.162,1.879,1.879,0,0,0,.265,2.022,7.644,7.644,0,0,0,1.184,1.09,26.854,26.854,0,0,1,3.373,2.454.721.721,0,0,0,.886.153,2.285,2.285,0,0,0,1.075-1.114A4.484,4.484,0,0,0,352.748,7789.477Zm-1.113,2.466c-.175.62-.433.773-.982.467a10.174,10.174,0,0,1-2.745-2.379,2.361,2.361,0,0,1-.578-2.57c.225-.561.483-1.106.726-1.659l.106.05.093,1.237.109-.01a22.145,22.145,0,0,1,.658-2.468,16.043,16.043,0,0,1,1.292-2.167,4.991,4.991,0,0,0,.169,2.99c.354,1.248.779,2.478,1.079,3.738A5.408,5.408,0,0,1,351.635,7791.943Z" transform="translate(-340.599 -7773.139)" fill="url(#linear-gradient-3)"/>
  <g id="Grupo_125" data-name="Grupo 125" transform="translate(4.426 5.682)">
    <path id="Trazado_299" data-name="Trazado 299" d="M360.417,7771.175s-.032-.15-.8.069l-3.945,1.191s-.437.2-1.419-.262a3.283,3.283,0,0,0-1.721.119,7.2,7.2,0,0,0-3.422,1.528h0c.016,0,.008.06.007.073a.507.507,0,0,1-.015.082,1.3,1.3,0,0,1-.057.158,5.157,5.157,0,0,0-.219.594,2.6,2.6,0,0,0-.089.644,3.23,3.23,0,0,0,.06.648,4.6,4.6,0,0,0,.175.645c.591,1.712,1.247,3.4,1.829,5.115a4.486,4.486,0,0,1-.082,3.512,2.283,2.283,0,0,1-1.075,1.113.72.72,0,0,1-.886-.153,16.982,16.982,0,0,0-2.793-2.046c-.186.519-.381,1-.583,1.43a7.39,7.39,0,0,1-2.3,2.4,13.146,13.146,0,0,0,6.535,5.469,7.9,7.9,0,0,0,1.505-2.752,16.873,16.873,0,0,0,.751-4.795c.018-.7.01-1.432-.026-2.383-.006-.152-.014-.3-.023-.454a7.269,7.269,0,0,1,.032-1.618,7.07,7.07,0,0,1,1.863-3.543,10.845,10.845,0,0,1,3.261-2.412,12.909,12.909,0,0,1,1.613-.6,9.538,9.538,0,0,0,2.12-.886l.037-.009c.079-.021.158-.048.237-.076C361,7773.738,361.127,7771.343,360.417,7771.175Z" transform="translate(-343.08 -7771.125)" fill="url(#linear-gradient-4)"/>
  </g>
  <path id="Trazado_300" data-name="Trazado 300" d="M352.748,7789.477c-.583-1.715-1.238-3.4-1.829-5.116a4.586,4.586,0,0,1-.175-.644,3.236,3.236,0,0,1-.06-.648,2.583,2.583,0,0,1,.089-.644,5.091,5.091,0,0,1,.219-.594,1.261,1.261,0,0,0,.057-.159.478.478,0,0,0,.015-.081c0-.014.009-.068-.007-.073s0,0,0,0a.6.6,0,0,0-.3.162q-.152.117-.294.246a6.585,6.585,0,0,0-.622.629c-.171.2-.346.4-.519.605-.3.349-.6.7-.881,1.061a15.849,15.849,0,0,0-2.563,4.162,1.879,1.879,0,0,0,.265,2.022,7.644,7.644,0,0,0,1.184,1.09,26.854,26.854,0,0,1,3.373,2.454.721.721,0,0,0,.886.153,2.285,2.285,0,0,0,1.075-1.114A4.484,4.484,0,0,0,352.748,7789.477Zm-1.113,2.466c-.175.62-.433.773-.982.467a10.174,10.174,0,0,1-2.745-2.379,2.361,2.361,0,0,1-.578-2.57c.225-.561.483-1.106.726-1.659l.106.05.093,1.237.109-.01a22.145,22.145,0,0,1,.658-2.468,16.043,16.043,0,0,1,1.292-2.167,4.991,4.991,0,0,0,.169,2.99c.354,1.248.779,2.478,1.079,3.738A5.408,5.408,0,0,1,351.635,7791.943Z" transform="translate(-340.599 -7773.139)" fill="url(#linear-gradient-3)"/>
  <path id="Trazado_301" data-name="Trazado 301" d="M369.776,7798.868a7.9,7.9,0,0,1-1.506,2.752,13.133,13.133,0,0,0,9.153.081c-.092-.636-.237-1.266-.374-1.853l0-.018c-.235-1.016-.544-2.089-.932-3.247l-.01-.028c-.163-.485-.338-.983-.529-1.5-.149-.4-.312-.809-.47-1.2a14.059,14.059,0,0,1-1.159-3.957,3.669,3.669,0,0,1,.44-2.4c.08-.12.2-.267.329-.421.092-.112.187-.227.271-.338h0a4.3,4.3,0,0,1,1.681-1.375,3.553,3.553,0,0,0,.925-.68,4.843,4.843,0,0,0,.423-.484,2.853,2.853,0,0,1,.671-.677,2.006,2.006,0,0,0,.957-1.437c-.08.028-.16.055-.239.076l-.037.009a9.542,9.542,0,0,1-2.12.887,13.064,13.064,0,0,0-1.613.6,10.845,10.845,0,0,0-3.261,2.412,7.067,7.067,0,0,0-1.863,3.543,7.27,7.27,0,0,0-.032,1.618c.008.151.017.3.023.453.036.953.044,1.688.026,2.384A16.885,16.885,0,0,1,369.776,7798.868Z" transform="translate(-357.309 -7773.562)" fill="url(#linear-gradient-6)"/>
  <path id="Trazado_302" data-name="Trazado 302" d="M352.748,7789.477c-.583-1.715-1.238-3.4-1.829-5.116a4.586,4.586,0,0,1-.175-.644,3.236,3.236,0,0,1-.06-.648,2.583,2.583,0,0,1,.089-.644,5.091,5.091,0,0,1,.219-.594,1.261,1.261,0,0,0,.057-.159.478.478,0,0,0,.015-.081c0-.014.009-.068-.007-.073s0,0,0,0a.6.6,0,0,0-.3.162q-.152.117-.294.246a6.585,6.585,0,0,0-.622.629c-.171.2-.346.4-.519.605-.3.349-.6.7-.881,1.061a15.849,15.849,0,0,0-2.563,4.162,1.879,1.879,0,0,0,.265,2.022,7.644,7.644,0,0,0,1.184,1.09,26.854,26.854,0,0,1,3.373,2.454.721.721,0,0,0,.886.153,2.285,2.285,0,0,0,1.075-1.114A4.484,4.484,0,0,0,352.748,7789.477Zm-1.113,2.466c-.175.62-.433.773-.982.467a10.174,10.174,0,0,1-2.745-2.379,2.361,2.361,0,0,1-.578-2.57c.225-.561.483-1.106.726-1.659h0a.745.745,0,0,1,.027.174l.032.193c.022.132.044.265.065.4.024.156.045.313.059.471a3.355,3.355,0,0,1,.025.456c.137-.52.244-1.046.371-1.568a10.554,10.554,0,0,1,.385-1.313,16.043,16.043,0,0,1,1.292-2.167,4.991,4.991,0,0,0,.169,2.99c.354,1.248.779,2.478,1.079,3.738A5.408,5.408,0,0,1,351.635,7791.943Z" transform="translate(-340.599 -7773.139)" fill="url(#linear-gradient-7)"/>
  <path id="Trazado_303" data-name="Trazado 303" d="M355.776,7794.589c-.175.619-.433.773-.982.466a10.188,10.188,0,0,1-2.745-2.378,2.363,2.363,0,0,1-.578-2.571c.225-.56.483-1.106.726-1.658h0a.748.748,0,0,1,.027.173l.032.193c.022.132.044.265.065.4.024.156.045.313.059.471a3.35,3.35,0,0,1,.025.456c.138-.519.244-1.046.371-1.567a10.558,10.558,0,0,1,.385-1.314,16.1,16.1,0,0,1,1.292-2.167,4.991,4.991,0,0,0,.169,2.99c.354,1.248.779,2.479,1.079,3.738A5.412,5.412,0,0,1,355.776,7794.589Z" transform="translate(-344.74 -7775.784)" fill="url(#linear-gradient-8)"/>
</svg>
