<?xml version="1.0" encoding="utf-8"?>
<!-- Generator: Adobe Illustrator 25.4.1, SVG Export Plug-In . SVG Version: 6.00 Build 0)  -->
<svg version="1.1" id="Capa_1" xmlns="http://www.w3.org/2000/svg" xmlns:xlink="http://www.w3.org/1999/xlink" x="0px" y="0px"
	 viewBox="0 0 312.6 138.9" style="enable-background:new 0 0 312.6 138.9;" xml:space="preserve">
<style type="text/css">
	.st0{fill:#D8D798;}
</style>
<g id="Grupo_682" transform="translate(-3147.447 282.397)">
	<g id="Grupo_681" transform="translate(3147.447 -284.352)">
		<g id="Grupo_679" transform="translate(0 1.955)">
			<g id="Grupo_678">
				<g id="Grupo_677">
					<path id="Trazado_812" class="st0" d="M45.4,44.5h6.2l19.1,33.9H45.4l2.8-5h13.4L45.4,44.5z"/>
					<path id="Trazado_813" class="st0" d="M63.8,44.5H70l16.2,28.8H80L63.8,44.5z"/>
					<path id="Trazado_814" class="st0" d="M39.2,89.4l-2.8,5h43.4l-2.8-5H39.2z"/>
				</g>
			</g>
		</g>
		<g id="Grupo_680" transform="translate(76.75)">
			<path id="Trazado_815" class="st0" d="M49.7,85.9c-1.9,0-3.9-0.4-5.6-1.4c-1.6-0.9-3-2.3-3.8-3.9c-1-1.9-1.4-4-1.4-6.1
				c-0.1-2.1,0.4-4.2,1.4-6.1c0.8-1.6,2.1-3,3.7-3.9c1.7-0.9,3.5-1.4,5.4-1.4c1.8-0.1,3.7,0.4,5.3,1.3c1.4,0.9,2.6,2.1,3.3,3.6
				c0.8,1.6,1.2,3.3,1.1,5.1c0,0.5,0,1,0,1.4S59,75.2,59,75.6H41.2v-3.1h16.2l-1.8,0.4c0.1-1.8-0.5-3.6-1.7-4.9
				c-1.2-1.2-2.9-1.8-4.6-1.7c-1.3,0-2.6,0.3-3.7,1c-1.1,0.7-1.9,1.7-2.4,2.9c-0.6,1.4-0.9,3-0.9,4.5s0.3,3.1,0.9,4.5
				c0.5,1.2,1.4,2.2,2.5,2.9c1.2,0.7,2.5,1,3.9,1c1.4,0.1,2.7-0.3,3.9-0.9c1-0.6,1.9-1.5,2.4-2.5l2.8,1.6c-0.5,1-1.3,1.9-2.1,2.6
				c-0.9,0.7-1.9,1.3-3,1.7C52.3,85.7,51,85.9,49.7,85.9z M73.8,85.9c-1.4,0-2.7-0.3-4-0.8c-1.2-0.5-2.3-1.4-3-2.6
				c-0.8-1.4-1.2-3-1.2-4.6V63.5h3.5V77c0,2.2,0.5,3.8,1.5,4.6c1.2,0.9,2.6,1.3,4.1,1.3c0.8,0,1.6-0.1,2.4-0.4s1.5-0.7,2.1-1.3
				c0.7-0.6,1.2-1.4,1.5-2.3c0.4-1.1,0.6-2.2,0.6-3.3v-12h3.5v22h-3.1l-0.2-3.3c-0.7,1.3-1.8,2.3-3.1,2.9C77,85.7,75.4,86,73.8,85.9
				z M111.5,59.4l0.8,3.1H112c-1.2-0.1-2.3,0.2-3.3,0.9c-0.8,0.7-1.3,1.7-1.2,2.8l-2.2-1.1c0-1.1,0.2-2.1,0.8-3
				c0.5-0.8,1.3-1.5,2.2-2c0.9-0.5,2-0.7,3-0.7C111.3,59.4,111.5,59.4,111.5,59.4z M104.9,82.7c1.7-0.1,3.5,0.4,4.9,1.4
				c1.2,0.9,1.8,2.3,1.8,3.8c0,1.4-0.5,2.7-1.4,3.7c-1.1,1.1-2.4,2-3.8,2.4c-1.7,0.6-3.6,0.9-5.4,0.9c-3.5,0-6.1-0.6-7.8-1.8
				c-1.5-0.9-2.5-2.5-2.6-4.2c0-1.2,0.4-2.3,1.2-3.1c1-1,2.5-1.6,3.9-1.6l-0.3,0.7c-0.9-0.2-1.8-0.7-2.5-1.3c-0.7-0.7-1.1-1.7-1-2.8
				c0-1.2,0.5-2.3,1.3-3.1c1.1-1,2.5-1.5,4-1.6l2.3,1.2H99c-1.1,0-2.2,0.4-3.1,1.1c-0.6,0.5-0.9,1.1-0.9,1.9c0,0.7,0.3,1.4,0.9,1.8
				c0.8,0.4,1.6,0.6,2.5,0.6H104.9z M100.8,92c1.4,0,2.8-0.1,4.2-0.5c0.9-0.2,1.8-0.7,2.4-1.4c0.5-0.5,0.8-1.1,0.8-1.8
				c0-0.8-0.3-1.5-0.9-1.9c-1-0.6-2.2-0.8-3.4-0.7h-6.8c-0.9,0-1.7,0.2-2.4,0.7c-0.6,0.5-1,1.2-1,2c0,1.2,0.8,2.2,1.9,2.6
				C97.3,91.8,99,92.1,100.8,92z M100.5,63c1.6,0,3.2,0.3,4.7,0.9c1.3,0.6,2.4,1.5,3.2,2.6c0.8,1.1,1.2,2.5,1.1,3.9
				c0,1.4-0.4,2.7-1.1,3.9c-0.8,1.2-1.9,2.1-3.2,2.6c-1.5,0.7-3.1,1-4.7,0.9c-2.9,0-5.1-0.7-6.7-2.1c-1.5-1.3-2.4-3.3-2.3-5.3
				c0-1.4,0.4-2.7,1.2-3.9c0.8-1.1,1.9-2,3.2-2.6C97.3,63.3,98.9,63,100.5,63z M100.5,65.9c-1.4,0-2.7,0.4-3.8,1.3
				c-1,0.8-1.6,2-1.5,3.3c0,1.3,0.5,2.5,1.5,3.3c1.1,0.9,2.4,1.3,3.8,1.3s2.7-0.4,3.8-1.3c1-0.8,1.6-2,1.5-3.3
				c0-1.3-0.5-2.5-1.5-3.3C103.2,66.3,101.9,65.9,100.5,65.9z M125.6,85.9c-1.9,0-3.9-0.4-5.6-1.4c-1.6-0.9-3-2.3-3.8-3.9
				c-1-1.9-1.4-4-1.4-6.1c-0.1-2.1,0.4-4.2,1.4-6.1c0.8-1.6,2.1-3,3.7-3.9c1.7-0.9,3.5-1.4,5.4-1.4c1.8-0.1,3.7,0.4,5.3,1.3
				c1.4,0.9,2.6,2.1,3.3,3.6c0.8,1.6,1.2,3.3,1.1,5.1c0,0.5,0,1,0,1.4s-0.1,0.7-0.1,1.1h-17.8v-3.1h16.2l-1.8,0.4
				c0.1-1.8-0.5-3.6-1.7-4.9c-1.2-1.2-2.9-1.8-4.6-1.7c-1.3,0-2.6,0.3-3.7,1s-1.9,1.7-2.4,2.9c-0.6,1.4-0.9,3-0.9,4.5
				s0.3,3.1,0.9,4.5c0.5,1.2,1.4,2.2,2.5,2.9c1.2,0.7,2.5,1,3.8,1c1.4,0.1,2.7-0.3,3.9-0.9c1-0.6,1.9-1.5,2.4-2.5l2.8,1.6
				c-0.5,1-1.3,1.9-2.1,2.6c-0.9,0.7-1.9,1.3-3,1.7C128.3,85.7,126.9,85.9,125.6,85.9z M126.3,52.5h3.8l-4.3,7.3H123L126.3,52.5z
				 M141.8,85.5v-22h3.1l0.3,4.9l-0.6-0.5c0.4-1.1,1.1-2,1.9-2.8c0.8-0.7,1.7-1.3,2.8-1.6c1-0.3,2.1-0.5,3.2-0.5
				c1.5,0,3,0.3,4.3,0.9c1.3,0.6,2.4,1.5,3.1,2.8c0.8,1.4,1.2,3.1,1.2,4.7v14.1h-3.5V72.6c0-2.4-0.5-4.1-1.6-5.1
				c-1-1-2.4-1.5-3.8-1.4c-1.1,0-2.2,0.3-3.2,0.7c-1.1,0.5-2,1.4-2.6,2.4c-0.8,1.4-1.1,2.9-1,4.5v11.7h-3.6V85.5z M170.8,59.3
				c-0.7,0-1.4-0.2-1.9-0.7s-0.8-1.2-0.7-1.9c0-0.7,0.2-1.4,0.7-1.9s1.2-0.8,1.9-0.7c0.7,0,1.4,0.2,1.9,0.7s0.8,1.2,0.7,1.9
				c0,0.7-0.2,1.4-0.7,1.9C172.2,59,171.5,59.3,170.8,59.3L170.8,59.3z M172.6,63.5v22h-3.5v-22H172.6z M190,85.9
				c-1.9,0-3.9-0.4-5.6-1.4c-1.6-0.9-3-2.3-3.8-3.9c-1-1.9-1.4-4-1.4-6.1c-0.1-2.1,0.4-4.2,1.4-6.1c0.8-1.6,2.1-3,3.7-3.9
				c1.7-0.9,3.5-1.4,5.4-1.4c1.8-0.1,3.7,0.4,5.3,1.3c1.4,0.9,2.6,2.1,3.3,3.6c0.8,1.6,1.2,3.3,1.1,5.1c0,0.5,0,1,0,1.4
				s-0.1,0.7-0.1,1.1h-17.8v-3.1h16.2l-1.8,0.4c0.1-1.8-0.5-3.6-1.7-4.9c-1.2-1.2-2.9-1.8-4.6-1.7c-1.3,0-2.6,0.3-3.7,1
				c-1.1,0.7-1.9,1.7-2.4,2.9c-0.6,1.4-0.9,3-0.9,4.5s0.3,3.1,0.9,4.5c0.5,1.2,1.4,2.2,2.5,2.9c1.2,0.7,2.5,1,3.9,1
				c1.4,0.1,2.7-0.3,3.9-0.9c1-0.6,1.9-1.5,2.4-2.5L199,81c-0.5,1-1.3,1.9-2.1,2.6c-0.9,0.8-1.9,1.3-3,1.7
				C192.6,85.7,191.3,85.9,190,85.9z"/>
		</g>
	</g>
</g>
</svg>
