<?xml version="1.0" encoding="utf-8"?>
<!-- Generator: Adobe Illustrator 25.4.1, SVG Export Plug-In . SVG Version: 6.00 Build 0)  -->
<svg version="1.1" id="Grupo_21" xmlns="http://www.w3.org/2000/svg" xmlns:xlink="http://www.w3.org/1999/xlink" x="0px" y="0px"
	 viewBox="0 0 312.6 138.9" style="enable-background:new 0 0 312.6 138.9;" xml:space="preserve">
<style type="text/css">
	.st0{fill-rule:evenodd;clip-rule:evenodd;fill:#7E7E7E;}
	.st1{fill:#585858;}
	.st2{fill:#7E7E7E;}
</style>
<g id="Capa_2_1_">
	<g id="Capa_1-2">
		<path class="st0" d="M60.7,70.1V54.9L33.2,62v15.2L60.7,70.1z M76.2,91.4V77.9l-14-5.9h-1.1l-3.4,0.9v18.5H76.2z M55.7,85.2
			l-20.5-6.6l20.5-5.3V85.2z M78.2,82.9l4.9-2l-4.9-2.1V82.9z M85.4,82l-7.2,2.9v8.5H55.7v-6.1l-23.2-7.5c-0.8-0.4-1.3-1.2-1.3-2.2
			V60.5l24.5-6.4v-8.6h22.5v13.9l7.9,3.3V80C86.1,80.1,86.1,81.7,85.4,82L85.4,82z M68.4,72.5V57.4L62.7,55v15.1L68.4,72.5z
			 M70.4,58.2v15.1l13.8,5.9V64.1L70.4,58.2z M60.8,52.9c0.6-0.2,1.4-0.2,2,0l13.4,5.8V47.5H57.7v6.1L60.8,52.9z"/>
		<path class="st1" d="M107.2,88c-0.6,1.8-2.4,2.7-4.2,2.2c-1.8-0.6-2.7-2.4-2.2-4.2c0.6-1.8,2.4-2.7,4.2-2.2c1,0.3,1.8,1.1,2.2,2.2
			l-0.8,0.2c-0.4-1.3-1.8-2.1-3.2-1.7c-1.3,0.4-2.1,1.8-1.7,3.2c0.3,1.1,1.3,1.8,2.4,1.8s2.1-0.7,2.4-1.8L107.2,88z"/>
		<path class="st1" d="M114,83.7c1.8,0,3.3,1.5,3.3,3.4s-1.5,3.3-3.4,3.3c-1.8,0-3.3-1.5-3.3-3.3C110.7,85.2,112.1,83.7,114,83.7
			L114,83.7z M114,89.6c1.4,0,2.6-1.1,2.6-2.5s-1.1-2.6-2.5-2.6s-2.6,1.1-2.6,2.5l0,0C111.5,88.4,112.6,89.5,114,89.6
			C114,89.5,114,89.5,114,89.6L114,89.6z"/>
		<path class="st1" d="M126.7,83.7v6.6h-0.5l-4.2-5.2v5.2h-0.8v-6.6h0.5l4.2,5.2v-5.2H126.7z"/>
		<path class="st1" d="M131,88.6c0.6,0.6,1.4,1,2.3,1c1,0,1.8-0.5,1.8-1.2c0-1.6-4.5-0.4-4.5-2.8c0-1.3,1.1-1.9,2.4-1.9
			c0.9,0,1.7,0.3,2.4,0.8l-0.5,0.6c-0.6-0.4-1.3-0.6-2-0.6c-0.9,0-1.5,0.3-1.5,1.1c0,1.7,4.4,0.3,4.4,2.8c0,1.1-1.1,2-2.6,2
			c-1.1,0-2.1-0.4-2.8-1.2L131,88.6z"/>
		<path class="st1" d="M145,83.7v0.8h-2.5v5.9h-0.8v-5.9h-2.5v-0.8H145z"/>
		<path class="st1" d="M152.9,90.3l-1.7-2.9h-1.7v2.9h-0.8v-6.6h3c1,0,1.8,0.8,1.8,1.8l0,0c0,0.8-0.6,1.6-1.4,1.8l1.8,3L152.9,90.3z
			 M149.4,86.6h2c0.6,0.1,1.1-0.4,1.2-1c0.1-0.6-0.4-1.1-1-1.2c-0.1,0-0.1,0-0.2,0h-2V86.6z"/>
		<path class="st1" d="M162.1,83.7v4c0.1,1.4-1,2.7-2.4,2.8c-1.4,0.1-2.7-1-2.8-2.4c0-0.1,0-0.2,0-0.3v-4h0.8v3.9
			c-0.1,1,0.7,1.8,1.6,1.9c1,0.1,1.8-0.7,1.9-1.6c0-0.1,0-0.2,0-0.3v-3.9L162.1,83.7L162.1,83.7z"/>
		<path class="st1" d="M172.4,88c-0.6,1.8-2.4,2.7-4.2,2.2s-2.7-2.4-2.2-4.2c0.6-1.8,2.4-2.7,4.2-2.2c1,0.3,1.8,1.1,2.2,2.2
			l-0.8,0.2c-0.4-1.3-1.8-2.1-3.2-1.7c-1.3,0.4-2.1,1.8-1.7,3.2c0.3,1.1,1.3,1.8,2.4,1.8c1.1,0,2.1-0.7,2.4-1.8L172.4,88z"/>
		<path class="st1" d="M181.5,83.7v0.8H179v5.9h-0.8v-5.9h-2.5v-0.8H181.5z"/>
		<path class="st1" d="M188.3,83.7c1.8,0,3.3,1.5,3.3,3.4s-1.5,3.3-3.4,3.3c-1.8,0-3.3-1.5-3.3-3.3
			C184.9,85.2,186.4,83.7,188.3,83.7L188.3,83.7z M188.3,89.6c1.4,0,2.6-1.1,2.6-2.5s-1.1-2.6-2.5-2.6s-2.6,1.1-2.6,2.5l0,0
			C185.8,88.4,186.9,89.5,188.3,89.6C188.3,89.5,188.3,89.5,188.3,89.6L188.3,89.6z"/>
		<path class="st1" d="M199.7,90.3l-1.7-2.9h-1.7v2.9h-0.8v-6.6h3c1,0,1.8,0.8,1.8,1.8l0,0c0,0.8-0.6,1.6-1.4,1.8l1.8,3L199.7,90.3z
			 M196.3,86.6h2c0.6,0.1,1.1-0.4,1.2-1c0.1-0.6-0.4-1.1-1-1.2c-0.1,0-0.1,0-0.2,0h-2V86.6z"/>
		<path class="st1" d="M207.6,83.7l2.7,6.7h-0.8l-0.5-1.2h-3.5l-0.5,1.2h-0.8l2.6-6.7H207.6z M205.7,88.3h2.9l-1.4-3.6L205.7,88.3z"
			/>
		<path class="st2" d="M265.8,54.9v22.8h15.5v-3.5h-11.7V54.9H265.8z M252,59.4l4.2,11h-8.5L252,59.4z M250.1,55L241,77.8h3.8
			l1.5-3.9h11.2l1.6,3.9h3.8l-9-22.8L250.1,55z M224.8,55v3.5h8v19.2h3.8V58.5h8V55H224.8z M218.1,55v16l-14-16.1h-2v22.8h3.8v-16
			l14,16.1h2V55H218.1z M183.7,55v22.8h15.5v-3.5h-11.7V67h8.9v-3.5h-8.9v-5h11.7V55H183.7z M177.6,55l-9.8,11.9L157.9,55h-2v22.8
			h3.8v-16l8.1,9.8l8.1-9.8v16h3.8V55H177.6z M137.6,55v22.8h15.5v-3.5h-11.7V67h8.9v-3.5h-8.8v-5h11.7V55H137.6z M119.3,55v22.8
			h15.5v-3.5h-11.7V54.9L119.3,55z M100.9,55H99v4c1,0,1.9,0.8,1.9,1.8l0,0v1.8h-1.8l-0.1,4c1,0,1.9,0.8,1.9,1.8l0,0v9.3h15.5v-3.5
			h-11.7V67h8.8v-3.5h-8.8v-5h11.7V55H100.9z"/>
	</g>
</g>
</svg>
