<?xml version="1.0" encoding="utf-8"?>
<!-- Generator: Adobe Illustrator 25.4.1, SVG Export Plug-In . SVG Version: 6.00 Build 0)  -->
<svg version="1.1" id="fe13616e-77b2-4d9e-badf-e43e536d579e"
	 xmlns="http://www.w3.org/2000/svg" xmlns:xlink="http://www.w3.org/1999/xlink" x="0px" y="0px" viewBox="0 0 312.6 138.9"
	 style="enable-background:new 0 0 312.6 138.9;" xml:space="preserve">
<style type="text/css">
	.st0{fill:url(#a5b093fd-3906-4813-8704-ddffa233da43_00000118381535001807537260000010493962723240083848_);}
	.st1{fill:#FFFFFF;}
</style>
<g id="aa28c39b-e76e-4e81-b57c-45890fa0fae2">
	<g id="acfcff01-7107-4273-bc24-0d8333ec539b">
		<g id="a42e7521-b549-465d-b2f6-252a5e1cdc83">
			<g id="a40d9a3a-1c1a-4dd9-b513-a036db6573de">
				
					<linearGradient id="a5b093fd-3906-4813-8704-ddffa233da43_00000032609877554796277930000005508671680835355573_" gradientUnits="userSpaceOnUse" x1="-2216.8628" y1="-159.2527" x2="-2215.8628" y2="-159.2527" gradientTransform="matrix(155.65 0 0 61.27 345133.5938 9826.3486)">
					<stop  offset="0" style="stop-color:#FF57CC"/>
					<stop  offset="0.13" style="stop-color:#FF4ED5"/>
					<stop  offset="0.19" style="stop-color:#F048DA"/>
					<stop  offset="0.25" style="stop-color:#EA46DD"/>
					<stop  offset="0.38" style="stop-color:#D03FE5"/>
					<stop  offset="0.5" style="stop-color:#AF3CEC"/>
					<stop  offset="0.63" style="stop-color:#863DF3"/>
					<stop  offset="0.75" style="stop-color:#4F40FF"/>
					<stop  offset="0.88" style="stop-color:#0046FF"/>
					<stop  offset="1" style="stop-color:#004BFF"/>
				</linearGradient>
				
					<path id="a5b093fd-3906-4813-8704-ddffa233da43" style="fill:url(#a5b093fd-3906-4813-8704-ddffa233da43_00000032609877554796277930000005508671680835355573_);" d="
					M109.1,38.3h94.4c16.9,0,30.6,13.7,30.6,30.6v0c0,16.9-13.7,30.6-30.6,30.6h-94.4c-16.9,0-30.6-13.7-30.6-30.6v0
					C78.5,52,92.2,38.3,109.1,38.3z"/>
				<g id="ad27077f-c69d-4afc-8c9d-78e0771fa6fe">
					<path id="f9e5bed7-92b1-4639-a62a-6c6adbcdc221" class="st1" d="M102.3,46.4h5.8v15.3c1.2-0.9,2.6-1.6,4-2.1
						c5.2-1.8,11-0.4,14.9,3.5c1.3,1.4,2.4,2.9,3.1,4.7c1.5,3.6,1.5,7.7,0,11.4c-0.7,1.7-1.8,3.3-3.1,4.7c-3.9,3.9-9.6,5.3-14.9,3.5
						c-1.4-0.5-2.8-1.2-4-2.1v2.3h-5.8L102.3,46.4z M116.8,82.3c1.2,0,2.3-0.2,3.4-0.7c1-0.4,2-1.1,2.7-1.9c0.8-0.8,1.4-1.7,1.8-2.8
						c0.5-1.1,0.7-2.2,0.7-3.4c0-2.3-0.9-4.5-2.5-6.2c-2.5-2.5-6.2-3.3-9.5-1.9c-4.4,2-6.4,7.1-4.6,11.6c0.4,1,1.1,2,1.8,2.8
						c0.8,0.8,1.7,1.4,2.7,1.9C114.4,82.1,115.6,82.4,116.8,82.3L116.8,82.3z"/>
					<path id="e8e37ece-45d3-41a6-96b8-7ad13e56deab" class="st1" d="M145.5,88.2c-1.4,0-2.8-0.3-4.1-0.8c-2.6-1.1-4.6-3.1-5.7-5.7
						c-0.6-1.3-0.9-2.8-0.9-4.2v-31h5.8v31c0,1.3,0.5,2.6,1.4,3.5c0.9,0.9,2.2,1.4,3.5,1.4L145.5,88.2z"/>
					<path id="aae32e33-f294-4845-8ca2-93147afd97c2" class="st1" d="M152.8,55.2c-2.1,0-3.8-1.7-3.8-3.8c0-1,0.4-2,1.1-2.7
						c0.7-0.7,1.6-1.1,2.6-1.1c2.1,0,3.8,1.7,3.8,3.8l0,0l0,0c0,1-0.4,2-1.2,2.7C154.8,54.8,153.8,55.2,152.8,55.2z M149.9,59.4h5.8
						v28.2h-5.8V59.4z"/>
					<path id="b96bce05-22ae-462a-9d94-72690c772852" class="st1" d="M175.6,88.2c-4,0-7.9-1.5-10.9-4.3c-1.4-1.3-2.5-2.9-3.3-4.7
						c-1.6-3.6-1.6-7.8,0-11.4c0.8-1.8,1.9-3.3,3.3-4.7c2.9-2.8,6.8-4.3,10.9-4.3c1.8,0,3.5,0.3,5.2,0.8c1.6,0.5,3.2,1.4,4.6,2.4
						l-3.6,4.7c-0.9-0.6-1.8-1.2-2.9-1.5c-2.3-0.8-4.8-0.7-7,0.2c-2.2,0.9-4.1,2.5-5.1,4.7c-1,2.2-1,4.7,0,6.8c0.5,1,1.2,2,2.1,2.8
						c0.9,0.8,1.9,1.4,3,1.9c1.2,0.5,2.4,0.7,3.7,0.7c1.1,0,2.2-0.2,3.3-0.5c1-0.4,2-0.9,2.9-1.5l3.6,4.7c-1.4,1-2.9,1.8-4.5,2.4
						C179.1,87.9,177.3,88.1,175.6,88.2z"/>
					<path id="f6b1586d-1955-407d-8dd9-cc536d308899" class="st1" d="M188.8,46.3h5.8v25.6c2.3-1.4,4.3-3.2,5.8-5.4
						c1.5-2.2,2.7-4.6,3.6-7.1h6.1l-0.6,2c-1.4,4.3-3.7,8.2-6.8,11.6l10.7,14.6h-7.2l-8-11c-0.6,0.3-1.1,0.7-1.7,1s-1.2,0.6-1.8,0.9
						v9.1h-5.8L188.8,46.3z"/>
				</g>
			</g>
		</g>
		<g id="e2e17ff2-26f6-4cca-8444-bfc17e485b8b">
			<path id="af7e85ec-ddc2-4377-96c2-b771f4613187" d="M187.2,90.5h21.6c5,0,9,4,9,9v0.1c0,5-4,9-9,9h-21.6c-5,0-9-4-9-9v-0.1
				C178.2,94.5,182.2,90.5,187.2,90.5z"/>
			<g id="a1cc62eb-271e-4eb5-bd08-3672adbf151f">
				<g id="b91c0b4a-c37c-46a0-a4da-2f093861996f">
					<path id="f8af35fe-425d-42dd-bc56-380ff9b5097b" class="st1" d="M188.8,96.6c0,0,0-0.1,0-0.1c0,0,0.1,0,0.1,0h1.8
						c0,0,0.1,0,0.1,0c0,0,0,0.1,0,0.1v7.2c0,0,0,0.1,0,0.1h-2c-0.1,0-0.1,0-0.1-0.1l-2.2-4.1v4.1c0,0,0,0.1,0,0.1h-2
						c-0.1,0-0.1-0.1-0.1-0.1l0,0v-7.1c0,0,0-0.1,0-0.1c0,0,0.1,0,0.1,0h1.9c0,0,0.1,0,0.1,0.1l2.4,3.7L188.8,96.6z"/>
					<path id="baef3b00-be91-464c-85ba-bb1bc5ee4751" class="st1" d="M192.2,103.9c0,0-0.1,0-0.1,0c0,0,0-0.1,0-0.1l0,0v-7.2
						c0-0.1,0.1-0.1,0.1-0.2h4.4c0,0,0.1,0,0.1,0c0,0,0,0.1,0,0.1v1.5c0,0.1-0.1,0.2-0.1,0.2h-2.4v1h2.1c0,0,0.1,0,0.1,0
						c0,0,0,0.1,0,0.1v1.5c0,0,0,0.1,0,0.1c0,0-0.1,0-0.1,0l0,0h-2.1v1.1h2.4c0,0,0.1,0,0.1,0c0,0,0,0.1,0,0.1v1.5c0,0,0,0.1,0,0.1
						h-0.1L192.2,103.9z"/>
					<path id="b365980e-abcd-4c6d-bbe5-5e660e167ef5" class="st1" d="M203.5,96.5c0.1,0,0.1,0,0.1,0.1l0,0l0,0l0.9,3.9l0.5-3.9v0
						c0,0,0.1,0,0.1,0h1.8c0,0,0.1,0,0.1,0c0,0,0,0.1,0,0.1l-1,7.2c0,0.1-0.1,0.1-0.1,0.1h-2.1c-0.1-0.2-0.2-0.4-0.3-0.6
						c-0.1-0.3-0.3-0.6-0.4-0.9s-0.2-0.6-0.3-0.9s-0.2-0.6-0.2-0.7l-0.1-0.3l-0.1,0.3c0,0.2-0.1,0.5-0.2,0.7c-0.1,0.3-0.2,0.7-0.3,1
						c-0.1,0.3-0.2,0.6-0.4,0.9c-0.1,0.2-0.2,0.4-0.4,0.6h-2.2c0,0,0-0.1,0-0.1l-1-7.2c0,0,0-0.1,0-0.1c0,0,0.1,0,0.1,0h1.8
						c0,0,0.1,0,0.1,0s0,0.1,0,0.1l0.6,3.9l0.9-3.9c0-0.1,0.1-0.1,0.1-0.1l0,0L203.5,96.5z"/>
					<path id="b74d25c7-99d1-4652-8ef2-1461177aa623" class="st1" d="M212.6,96.7l-0.1,1.4c0,0,0,0.1-0.1,0.1c0,0-0.1,0-0.1,0
						c-0.4-0.1-0.9-0.2-1.4-0.2c-0.1,0-0.3,0-0.4,0.1c-0.1,0-0.2,0.1-0.3,0.2c0,0.1-0.1,0.1-0.1,0.2v0.3c0,0.1,0.1,0.2,0.1,0.2
						c0.1,0.1,0.2,0.2,0.3,0.3c0.2,0.1,0.3,0.2,0.5,0.2c0.2,0.1,0.5,0.1,0.7,0.3c0.2,0.1,0.4,0.3,0.6,0.5c0.2,0.2,0.3,0.5,0.4,0.7
						c0.1,0.3,0.2,0.6,0.2,0.9c0,0.6-0.2,1.2-0.7,1.6c-0.6,0.4-1.4,0.6-2.2,0.5c-0.5,0-1.1,0-1.6-0.1c0,0-0.1,0-0.1-0.1
						c0,0,0-0.1,0-0.1l0.1-1.4c0,0,0-0.1,0.1-0.1c0,0,0.1,0,0.1,0c0.4,0.1,0.9,0.1,1.3,0.2c0.1,0,0.3,0,0.4-0.1
						c0.1,0,0.2-0.1,0.3-0.2c0-0.1,0.1-0.1,0.1-0.2c0-0.1,0-0.1,0-0.2c0-0.1,0-0.1,0-0.2c0-0.1-0.1-0.1-0.1-0.2
						c-0.1-0.1-0.2-0.2-0.3-0.3c-0.2-0.1-0.3-0.2-0.5-0.2c-0.2-0.1-0.5-0.2-0.7-0.3c-0.2-0.1-0.4-0.3-0.6-0.5
						c-0.2-0.2-0.3-0.5-0.4-0.7c-0.1-0.3-0.2-0.6-0.2-0.9c0-0.6,0.2-1.2,0.8-1.6c0.6-0.4,1.3-0.6,2.1-0.6c0.5,0,1.1,0,1.6,0.1
						c0,0,0.1,0,0.1,0C212.6,96.6,212.6,96.7,212.6,96.7z"/>
				</g>
			</g>
		</g>
	</g>
</g>
</svg>
