<?xml version="1.0" encoding="utf-8"?>
<!-- Generator: Adobe Illustrator 25.4.1, SVG Export Plug-In . SVG Version: 6.00 Build 0)  -->
<svg version="1.2" baseProfile="tiny" id="Capa_1" xmlns="http://www.w3.org/2000/svg" xmlns:xlink="http://www.w3.org/1999/xlink"
	 x="0px" y="0px" viewBox="0 0 312.6 138.9" overflow="visible" xml:space="preserve">
<g id="Grupo_22" transform="translate(0.329 -0.043)">
	<g id="Grupo_372" transform="translate(52.671 39.043)">
		<g>
			<path fill="#B3B3B3" d="M32.8,34.5c-1.8,0.9-3.6,1.8-5.3,2.8c-0.2,0.1-0.2,0.3-0.2,0.5c0.3,1.3,0.6,2.5,0.8,3.6
				c0.5-0.5,1.1-1.1,1.7-1.6c0.9-0.8,1.9-1.4,2.8-2.2c0.3-0.2,0.4-0.5,0.5-0.8l0,0c0-0.7,0.1-1.5,0-2.2
				C32.9,34.5,32.8,34.5,32.8,34.5z"/>
			<path fill="#B3B3B3" d="M0.5,31.2c1.6,0.6,3.2,1.1,4.8,1.7c0.8-1.5,1.6-3,2.3-4.4c0.6-1.1,1.1-1.2,2.2-0.6
				c2.7,1.4,5.4,2.8,8.1,4.2c0.2,0.1,0.4,0.2,0.7,0.3c0.3-1.1,0.5-2.1,0.8-3.1c0.1-0.4,0.4-0.8,0.7-1.1c1.4-1.1,2.8-2.1,4.3-3.1
				c0.4-0.3,0.7-0.8,0.6-1.3c0-2.5,0-5.1,0-7.6c-0.1-0.8,0.4-1.6,1.2-1.9c1.1-0.5,2.1-1,3.1-1.6c0.5-0.3,1.3-0.3,1.7,0.1
				c1.7,1.2,3.4,2.4,5.1,3.5c0.3,0.2,0.7,0.3,1.1,0.3c2.5-0.2,5.1-0.4,7.6-0.6c0.7-0.2,1.5,0.3,1.7,1c0.8,1.7,1.7,3.5,2.5,5.2
				c0,0.1,0.1,0.3,0.2,0.4c0.5,0.6,1.3,0.7,1.9,0.2c1.9-1.4,3.8-2.8,5.8-4.2c0.4-0.3,0.7-0.8,0.6-1.3c0-0.4,0-0.8,0-1.2
				C52.5,6.5,42.4,0,30.7,0C13.7,0,0,13.7,0,30.7l0,0C0.1,30.9,0.3,31.1,0.5,31.2z"/>
			<path fill="#B3B3B3" d="M35.3,26c1.9-0.9,3.8-1.7,5.7-2.6c0.2-0.1,0.6-0.4,0.6-0.6c0-1.4,0-2.8,0-4.3c-1.6,0.1-3.2,0.3-4.8,0.4
				c-0.5,0-1-0.1-1.5-0.4c-1-0.7-2-1.4-3-2.1c-2.2-1.6-2.2-1.6-4.4-0.4c-0.4,0.2-0.7,0.6-0.6,1.1c0,2.6,0,5.1,0,7.7
				c0,0.7-0.3,1.4-0.9,1.7c-1.5,1-2.9,2.1-4.4,3.2c-0.2,0.2-0.4,0.4-0.5,0.7c-0.3,1.1-0.6,2.1-0.9,3.2c0.2,0.1,0.3,0.2,0.4,0.3
				c0.5,0.3,1.1,0.6,1.6,0.8c0.1,0,0.2,0.1,0.2,0.1c0.7,0.4,0.9,1.2,0.6,1.8c-0.2,0.7-0.4,1.5-0.7,2.1c-1.2,2.7-1.4,5.8-3.2,8.2
				l1.7,2.5c0.4-0.5,0.6-1.3,1.1-1.6c0.6-0.3,1-0.9,1.2-1.6c0.1-0.2,0.4-0.4,0.6-0.5l0,0c0.6-0.3,1.1-0.5,1.7-0.7s0.7-0.5,0.5-1
				c-0.5-2.2-1-4.4-1.6-6.6c-0.3-0.7,0.1-1.5,0.8-1.8c1.3-0.6,2.5-1.3,3.7-2c1.2-0.6,2.4-1.2,3.6-1.8c0.5-1.6,1-3.3,1.5-5
				C34.6,26.5,35,26.2,35.3,26z"/>
			<path fill="#B3B3B3" d="M60.8,24.8c-0.2-0.9-0.4-1.8-0.6-2.6l-1.3,2.5C59.5,24.7,60.2,24.8,60.8,24.8z"/>
			<path fill="#B3B3B3" d="M25.5,53.4c-0.5-1.4-1-2.7-1.4-4c-1,0.9-1.6,2.3-1.3,2.9l0,0C23.4,53.6,23.5,53.7,25.5,53.4z"/>
			<path fill="#B3B3B3" d="M58.7,41.9c0.1,0.3,0.1,0.7,0.2,1c0.2-0.5,0.5-1.1,0.7-1.6L58.7,41.9z"/>
			<path fill="#B3B3B3" d="M50.8,32.9c-0.1,0.2-0.1,0.6,0,0.7c1.7,1.7,3,3.8,5.5,4.8c1.8,0.7,2.9,0.5,4.1-0.8
				c0.1-0.1,0.2-0.2,0.3-0.3c0.5-2.2,0.7-4.4,0.7-6.7c0-1.2-0.1-2.3-0.2-3.5C60.6,27,60,27,59.4,27c-0.1,0-0.2,0.1-0.3,0.2
				c-0.5,0.9-1.3,0.7-2,0.4c-0.5-0.2-1-0.3-1.5-0.5c-1.4-0.5-2.9-0.9-4.5-1.5c0.5,1.1,1,2,1.3,2.9c0.2,0.5,0.2,1,0,1.4
				C51.9,31,51.3,31.9,50.8,32.9z"/>
			<path fill="#B3B3B3" d="M56.1,25c0.8-1.5,1.5-2.9,2.3-4.3l-0.1-0.1L53.4,24L56.1,25z"/>
			<path fill="#B3B3B3" d="M15,33.4v-0.2c-1.9-1-3.7-2-5.7-3l0,0c-0.6,1.1-1.2,2.2-1.8,3.5c0.3,0,0.6,0.1,0.9,0.1
				c0.8-0.1,1.7-0.3,2.5-0.3C12.3,33.3,13.6,33.4,15,33.4z"/>
			<path fill="#B3B3B3" d="M46.4,32.1c0.5,0,0.7-0.2,0.8-0.7c0.4-1.6,0.8-3.1,1.2-4.7c0.1-0.3,0-0.7-0.1-1c-1.1-2.3-2.2-4.6-3.3-6.9
				c-0.3-0.5-0.6-0.6-1.1-0.3c0,1.7,0,3.4,0,5l0,0c0.1,0.7-0.4,1.4-1,1.6c-1.9,0.8-3.8,1.7-5.7,2.5c-0.3,0.1-0.7,0.3-0.8,0.6
				c-0.4,1.2-0.8,2.5-1.2,3.8c0.2,0,0.4,0.1,0.5,0.1C39.3,32.1,42.9,32.1,46.4,32.1z"/>
			<path fill="#B3B3B3" d="M19,50.2c-0.1-0.3-0.3-0.6-0.5-0.8c-0.3-0.3-0.6-0.6-0.9-1l-0.3,0.2c0.1,0.3,0.2,0.7,0.4,1
				c1,1,1.2,2.6,0.5,3.8c-0.1,0.3-0.2,0.6-0.3,0.9c0.4-0.2,0.7-0.2,0.9-0.4l0,0C19.8,52.6,19.9,51.7,19,50.2z"/>
			<path fill="#B3B3B3" d="M31.8,58.2c-0.1-0.4-0.3-0.8-0.7-1c-1.1-0.3-2.3-0.5-3.5-0.8c-0.2,0-0.6,0-0.7-0.1
				c-0.7-0.8-1.7-0.5-2.5-0.5c-1.3,0-2.7,0.2-3.2-1.8c-0.9,1.7-1.8,3.3-2.7,4.8c3.7,1.6,7.8,2.5,12.2,2.5c0.6,0,1.1,0,1.7,0
				C32.2,60.3,32,59.2,31.8,58.2z"/>
			<path fill="#B3B3B3" d="M57,45.9c0-1.6-0.5-3.1-1.4-4.5c-0.4-0.8-1.1-1.4-1.9-1.6c-0.4-0.2-0.8-0.5-1.1-0.8
				c-1.3-1.3-2.5-2.7-3.8-4.1c-0.2-0.2-0.6-0.4-0.9-0.4c-3.8,0-7.6,0-11.4,0c-0.3,0-0.7,0-1.1,0.1c0,1.1,0.1,2.1,0,3.1
				c-0.1,0.5-0.3,0.9-0.6,1.3c-0.7,0.7-1.5,1.3-2.4,1.8C31,41.6,30.1,43,30,44.6c-0.2,1.4-1,2.5-2.3,3.1c-0.5,0.2-1,0.5-1.5,0.8
				c0.6,1.7,1.1,3.4,1.8,5c0.2,0.3,0.5,0.6,0.8,0.7c1.3,0.5,2.7,1,4.1,1.4c0.6,0.1,1.1,0.7,1.1,1.3c0.2,1.5,0.5,2.9,0.8,4.4
				c9.5-1.2,17.6-6.8,22.4-14.7C57,46.3,57,46.1,57,45.9z"/>
			<path fill="#B3B3B3" d="M17.2,56.5L16,56.3c0.5-1-0.4-1.1-1-1.5c0.3-0.9,0.7-1.7,0.9-2.6c0.1-0.3,0.1-0.6,0-0.8
				c-0.6-1.2-1.3-2.4-2.8-2.7c-0.5-0.1-1-0.3-1.4-0.5C10.3,47.6,9,47,7.6,46.4c-0.2,1,0.1,2.1,0.8,2.9c1.1,1.2,1.7,2.7,2,4.3
				c1.8,1.6,3.9,3,6,4.2C16.7,57.4,17,57,17.2,56.5z"/>
			<path fill="#B3B3B3" d="M1.6,34c0.6,1.1,1,2,1.5,3.1c0.4-0.8,0.8-1.4,1.2-2.2C3.4,34.6,2.6,34.4,1.6,34z"/>
			<path fill="#B3B3B3" d="M7,37c-0.5,0.2-0.6,0.5-0.5,1c0.3,1.2,0.6,2.5,0.9,3.8c0.4,1.5,1.5,2.8,3,3.5c1,0.5,2.1,0.7,3.1,1.3l0,0
				c1.5,0.9,2.5,0.5,3.5-0.7c0.5-0.6,1.2-1,1.4-1.7c0.8-2.2,1.5-4.4,2.2-6.6c0.4-1.2,0.2-1.6-1-1.9c-0.2,0-0.4,0-0.5,0h-4.4
				c-2.6,0.1-5.3-0.5-7.5,1.3C7.2,37,7.1,37,7,37z"/>
			<path fill="#B3B3B3" d="M5.6,48.3c-0.3-1.1-0.3-2.2-0.2-3.4c0-0.6-0.2-1.1-0.6-1.5c-1-1.3-2.3-2.3-3-3.7c-0.4-0.7-0.7-1.4-1-2.1
				C1.7,41.5,3.3,45.1,5.6,48.3z"/>
		</g>
		<g id="Grupo_371" transform="translate(73.858 14.763)">
			<g id="Grupo_369">
				<path id="Trazado_529" fill="#B3B3B3" d="M25.6,22.5h-6.2c-0.2-0.6-0.4-1.3-0.5-1.9c-1.5,1.7-3.4,2.5-7.3,2.5
					C4.1,23.1,0,18.4,0,11.8C0,5.9,3.5,0,13.4,0C20,0,24.7,2.8,25.6,7.4H16c-0.2-1.3-1.3-2.2-2.6-2c-2.7,0-3.3,3-3.3,6
					c0,3.4,0.9,6.2,3.5,6.2c2.4,0,2.8-1.6,2.8-2.3V15h-3.1V9.6h12.2L25.6,22.5z"/>
				<path id="Trazado_530" fill="#B3B3B3" d="M38.8,14.7v7.8h-9.3V0.6h15.1c5.9,0,8.8,2.8,8.8,6.2c0.1,2.4-1.5,4.7-3.8,5.4
					c1.9,0.8,3.2,2.3,3.2,5.6v1.3c0,1.2,0.1,2.3,0.3,3.4h-9.2c-0.4-1.4-0.5-2.9-0.5-4.4v-0.8c0-2.1-0.5-2.6-2.7-2.6L38.8,14.7z
					 M38.8,9.7h2.7c1.1,0,2.3-0.4,2.3-1.8c0-1.2-0.9-1.8-2.4-1.8h-2.7v3.6C38.7,9.7,38.8,9.7,38.8,9.7z"/>
				<path id="Trazado_531" fill="#B3B3B3" d="M64.7,19.4l-0.8,3.1h-9.3l7.5-21.9h12.6L83,22.5H72.7l-0.8-3.1H64.7z M70.1,13.5
					c-0.6-2.4-1.2-4.9-1.8-6.9h-0.2c-0.4,2.1-1.2,4.9-1.7,6.9H70.1z"/>
				<path id="Trazado_532" fill="#B3B3B3" d="M88.1,22.5L80,0.6h10.2l2.5,9.3c0.8,3.1,1.1,4.5,1.5,6.3h0.1c0.3-1.6,0.6-3.1,1.4-6.2
					l2.2-9.4h10.3L100,22.5H88.1z"/>
				<path id="Trazado_533" fill="#B3B3B3" d="M115.5,19.4l-0.8,3.1h-9.3l7.5-21.9h12.6l8.2,21.9h-10.2l-0.8-3.1H115.5z M120.9,13.5
					c-0.6-2.4-1.2-4.9-1.8-6.9h-0.2c-0.4,2.1-1.2,4.9-1.7,6.9H120.9z"/>
			</g>
			<g id="Grupo_370" transform="translate(1.812 29.403)">
				<path id="Trazado_534" fill="#B3B3B3" d="M6.2,4.2c0-1.2,0-2.4,0-3.1l0,0c-0.3,1.2-1.1,3.4-2,5.8H3.1C2.4,4.8,1.5,2.3,1.2,1.1
					l0,0c0.1,0.8,0.1,2.1,0.1,3.2v2.5H0V0.1h2c0.8,2.1,1.5,4.2,1.7,5l0,0c0.3-1,1.1-3,1.8-5h2v6.7H6.2V4.2z"/>
				<path id="Trazado_535" fill="#B3B3B3" d="M16.1,3.5c0.1,1.9-1.4,3.4-3.2,3.5c-0.1,0-0.2,0-0.4,0C10.7,7.1,9.1,5.7,9,3.8
					c0-0.1,0-0.2,0-0.4c0-1.9,1.5-3.4,3.4-3.5c0.1,0,0.1,0,0.2,0c1.9-0.1,3.4,1.3,3.5,3.2C16.1,3.3,16.1,3.4,16.1,3.5z M10.4,3.4
					c-0.1,1.2,0.7,2.2,1.9,2.4c0.1,0,0.2,0,0.3,0C13.9,6,15.1,5,15.2,3.7c0.1-1.3-0.8-2.5-2.1-2.6s-2.5,0.8-2.6,2.1
					C10.4,3.3,10.4,3.4,10.4,3.4z"/>
				<path id="Trazado_536" fill="#B3B3B3" d="M19.3,6.8l-2.8-6.7H18l1.3,3.3c0.5,1.2,0.7,1.9,0.8,2.3l0,0c0.1-0.4,0.3-0.8,0.8-2.3
					l1.3-3.3h1.5L21,6.8H19.3z"/>
				<path id="Trazado_537" fill="#B3B3B3" d="M26.1,0.1v6.7h-1.4V0.1H26.1z"/>
				<path id="Trazado_538" fill="#B3B3B3" d="M34.1,4.2c0-1.2,0-2.4,0-3.1l0,0c-0.3,1.2-1.1,3.4-2,5.8H31c-0.6-2.1-1.5-4.6-1.9-5.8
					l0,0c0.1,0.8,0.1,2.1,0.1,3.2v2.5h-1.3V0.1h2c0.7,2.1,1.5,4.2,1.7,5l0,0c0.3-1,1.1-3,1.8-5h2v6.7H34L34.1,4.2L34.1,4.2z"/>
				<path id="Trazado_539" fill="#B3B3B3" d="M38.7,0.1v6.7h-1.4V0.1H38.7z"/>
				<path id="Trazado_540" fill="#B3B3B3" d="M45.7,3.9h-3.8v1.8h4.2l-0.2,1.1h-5.5V0.1h5.4v1.1h-4v1.5h3.8L45.7,3.9z"/>
				<path id="Trazado_541" fill="#B3B3B3" d="M47.4,6.8V0.1H49c1.8,2.6,2.9,4.2,3.4,5l0,0c-0.1-0.8-0.1-1.9-0.1-3v-2h1.3v6.7H52
					c-0.7-1.1-3-4.5-3.5-5.3l0,0c0.1,0.8,0.1,1.8,0.1,3v2.3L47.4,6.8z"/>
				<path id="Trazado_542" fill="#B3B3B3" d="M57.1,1.3h-2.4V0.1h6.2v1.1h-2.4v5.5h-1.4L57.1,1.3z"/>
				<path id="Trazado_543" fill="#B3B3B3" d="M68.5,3.5c0.1,1.9-1.4,3.4-3.2,3.5c-0.1,0-0.2,0-0.4,0c-1.8,0.1-3.4-1.3-3.5-3.1
					c0-0.1,0-0.2,0-0.4c0-1.9,1.5-3.4,3.4-3.5c0.1,0,0.1,0,0.2,0c1.9-0.1,3.4,1.3,3.5,3.2C68.5,3.3,68.5,3.4,68.5,3.5z M62.9,3.4
					c-0.1,1.2,0.7,2.2,1.9,2.4c0.1,0,0.2,0,0.3,0C66.3,6,67.5,5,67.6,3.7s-0.8-2.5-2.1-2.6C64.2,1,63,1.9,62.9,3.2
					C62.9,3.3,62.9,3.4,62.9,3.4z"/>
				<path id="Trazado_544" fill="#B3B3B3" d="M70.8,4.8c0.2,0.6,0.7,1.1,1.9,1.1c1.1,0,1.5-0.4,1.5-0.9s-0.3-0.8-1.8-1.1
					c-2.2-0.4-2.7-1.1-2.7-2c0-1.3,1.2-2,2.8-2c2.2,0,2.8,1.2,2.9,1.9H74C73.8,1.5,73.6,1,72.4,1c-0.8,0-1.3,0.3-1.3,0.8
					c0,0.4,0.3,0.7,1.6,0.9c2.5,0.4,2.9,1.2,2.9,2.2C75.6,6,74.7,7,72.5,7c-2,0-3-0.9-3.2-2.1L70.8,4.8z"/>
				<path id="Trazado_545" fill="#B3B3B3" d="M79.7,0.1h2.9C84.3,0,85.9,1.3,86,3c0,0.1,0,0.2,0,0.4c0.1,1.8-1.4,3.4-3.2,3.4
					c-0.1,0-0.2,0-0.3,0h-2.9L79.7,0.1z M81.1,5.7h1.3c1.1,0.1,2.1-0.7,2.2-1.8c0-0.2,0-0.3,0-0.5c0.1-1.1-0.7-2.1-1.8-2.2
					c-0.1,0-0.3,0-0.4,0h-1.3C81.1,1.2,81.1,5.7,81.1,5.7z"/>
				<path id="Trazado_546" fill="#B3B3B3" d="M92.6,3.9h-3.8v1.8H93l-0.2,1.1h-5.5V0.1h5.4v1.1h-4v1.5h3.8L92.6,3.9z"/>
				<path id="Trazado_547" fill="#B3B3B3" d="M97.8,4.8c0.2,0.6,0.7,1.1,1.9,1.1c1.1,0,1.5-0.4,1.5-0.9s-0.3-0.8-1.8-1.1
					c-2.2-0.4-2.7-1.1-2.7-2c0-1.3,1.2-2,2.8-2c2.2,0,2.8,1.2,2.9,1.9H101c-0.1-0.4-0.3-0.9-1.5-0.9c-0.8,0-1.3,0.3-1.3,0.8
					c0,0.4,0.3,0.7,1.6,0.9c2.5,0.4,2.9,1.2,2.9,2.2c0,1.1-0.9,2.1-3.1,2.1c-2,0-3-0.9-3.2-2.1H97.8z"/>
				<path id="Trazado_548" fill="#B3B3B3" d="M105.2,0.1v3.8c0,1.5,0.8,1.9,1.7,1.9c1,0,1.6-0.4,1.6-1.9V0.1h1.4v3.8
					c0,2.1-1.1,3-3.1,3c-1.9,0-3.1-0.9-3.1-3V0.1H105.2z"/>
				<path id="Trazado_549" fill="#B3B3B3" d="M116.9,3.9h-3.8v1.8h4.2l-0.2,1.1h-5.5V0.1h5.4v1.1h-4v1.5h3.8L116.9,3.9L116.9,3.9z"
					/>
				<path id="Trazado_550" fill="#B3B3B3" d="M118.6,0.1h1.4v5.5h3.8l-0.2,1.1h-5L118.6,0.1z"/>
				<path id="Trazado_551" fill="#B3B3B3" d="M131.4,3.5c0.1,1.9-1.4,3.4-3.2,3.5c-0.1,0-0.2,0-0.4,0c-1.8,0.1-3.4-1.3-3.5-3.1
					c0-0.1,0-0.2,0-0.4c0-1.9,1.5-3.4,3.4-3.5c0.1,0,0.1,0,0.2,0c1.9-0.1,3.4,1.3,3.5,3.2C131.4,3.3,131.4,3.4,131.4,3.5z
					 M125.8,3.4c-0.1,1.2,0.7,2.2,1.9,2.4c0.1,0,0.2,0,0.3,0c1.3,0.1,2.5-0.8,2.6-2.1s-0.8-2.5-2.1-2.6c-1.3-0.1-2.5,0.8-2.6,2.1
					C125.8,3.3,125.8,3.4,125.8,3.4z"/>
			</g>
		</g>
	</g>
</g>
</svg>
