<svg xmlns="http://www.w3.org/2000/svg" xmlns:xlink="http://www.w3.org/1999/xlink" width="1920" height="856" viewBox="0 0 1920 856">
  <defs>
    <clipPath id="clip-path">
      <rect id="Rectángulo_220" data-name="Rectángulo 220" width="1920" height="856" fill="#fff" stroke="#707070" stroke-width="1"/>
    </clipPath>
  </defs>
  <g id="Enmascarar_grupo_11" data-name="Enmascarar grupo 11" clip-path="url(#clip-path)">
    <path id="Trazado_294" data-name="Trazado 294" d="M1976,1105.806v238.25H0v-766H44.672C55.863,540.3,67.644,503,80.761,466.777,144.768,290,243.324,137.165,371.954,57.253,500.631-22.665,660.891-22.712,792.726,81.232c100.78,79.442,181.814,214.249,289.333,268.512,126.633,63.887,253.938,1.764,381.292-39.38,24.358-7.9,48.723-15,73.122-20.284,229.591-50.065,485.164,73.991,660.4,320.462,88.816,124.973,155.6,279.492,195.723,444.081Z" transform="translate(2246.698 757.717) rotate(171)" fill="#e4e4e4" opacity="0.39" style="isolation: isolate"/>
  </g>
</svg>
